<mxfile host="app.diagrams.net" modified="2023-05-07T22:27:02.272Z" agent="Mozilla/5.0 (Windows NT 10.0; Win64; x64) AppleWebKit/537.36 (KHTML, like Gecko) Chrome/112.0.0.0 Safari/537.36" etag="aijWSHXiGMgu03cUjtj9" version="21.2.9" type="device">
  <diagram name="Page-1" id="26DUEZH04vB5gNYLJpsZ">
    <mxGraphModel dx="5825" dy="844" grid="1" gridSize="10" guides="1" tooltips="1" connect="1" arrows="1" fold="1" page="1" pageScale="1" pageWidth="1920" pageHeight="1200" background="none" math="0" shadow="0">
      <root>
        <object label="" size="24pt" id="0">
          <mxCell />
        </object>
        <mxCell id="1" parent="0" />
        <mxCell id="bhZwOV67Gbov-zILEt_u-349" value="" style="group;fillOpacity=100;" vertex="1" connectable="0" parent="1">
          <mxGeometry x="-3020" y="330" width="5500" height="1775" as="geometry" />
        </mxCell>
        <mxCell id="baaq-4lyddFwtSRx4nJD-1" value="1.0&lt;br style=&quot;font-size: 14px;&quot;&gt;Online Taxi Sharing System" style="rounded=0;whiteSpace=wrap;html=1;labelBackgroundColor=none;fontSize=14;spacingTop=0;fillOpacity=100;" parent="bhZwOV67Gbov-zILEt_u-349" vertex="1">
          <mxGeometry x="3450" width="160" height="80" as="geometry" />
        </mxCell>
        <mxCell id="baaq-4lyddFwtSRx4nJD-8" value="1.1&lt;br style=&quot;font-size: 14px;&quot;&gt;Maintain account" style="rounded=0;whiteSpace=wrap;html=1;labelBackgroundColor=none;fontSize=14;spacingTop=0;fillOpacity=100;" parent="bhZwOV67Gbov-zILEt_u-349" vertex="1">
          <mxGeometry x="1790" y="330" width="120" height="60" as="geometry" />
        </mxCell>
        <mxCell id="baaq-4lyddFwtSRx4nJD-19" style="edgeStyle=orthogonalEdgeStyle;rounded=0;orthogonalLoop=1;jettySize=auto;html=1;entryX=0.5;entryY=0;entryDx=0;entryDy=0;labelBackgroundColor=none;fontColor=default;fontSize=14;spacingTop=0;fillOpacity=100;" parent="bhZwOV67Gbov-zILEt_u-349" source="baaq-4lyddFwtSRx4nJD-1" target="baaq-4lyddFwtSRx4nJD-8" edge="1">
          <mxGeometry relative="1" as="geometry" />
        </mxCell>
        <mxCell id="baaq-4lyddFwtSRx4nJD-10" value="1.2&lt;br style=&quot;font-size: 14px;&quot;&gt;Share a ride" style="rounded=0;whiteSpace=wrap;html=1;labelBackgroundColor=none;fontSize=14;spacingTop=0;fillOpacity=100;" parent="bhZwOV67Gbov-zILEt_u-349" vertex="1">
          <mxGeometry x="2910" y="340" width="120" height="60" as="geometry" />
        </mxCell>
        <mxCell id="baaq-4lyddFwtSRx4nJD-9" style="edgeStyle=orthogonalEdgeStyle;rounded=0;orthogonalLoop=1;jettySize=auto;html=1;entryX=0.5;entryY=0;entryDx=0;entryDy=0;labelBackgroundColor=none;fontColor=default;fontSize=14;spacingTop=0;fillOpacity=100;" parent="bhZwOV67Gbov-zILEt_u-349" source="baaq-4lyddFwtSRx4nJD-1" target="baaq-4lyddFwtSRx4nJD-10" edge="1">
          <mxGeometry relative="1" as="geometry">
            <mxPoint x="3400" y="150" as="targetPoint" />
          </mxGeometry>
        </mxCell>
        <mxCell id="baaq-4lyddFwtSRx4nJD-11" value="1.3&lt;br style=&quot;font-size: 14px;&quot;&gt;Process Payment" style="rounded=0;whiteSpace=wrap;html=1;labelBackgroundColor=none;fontSize=14;spacingTop=0;fillOpacity=100;" parent="bhZwOV67Gbov-zILEt_u-349" vertex="1">
          <mxGeometry x="3925" y="340" width="120" height="60" as="geometry" />
        </mxCell>
        <mxCell id="baaq-4lyddFwtSRx4nJD-12" style="edgeStyle=orthogonalEdgeStyle;rounded=0;orthogonalLoop=1;jettySize=auto;html=1;entryX=0.5;entryY=0;entryDx=0;entryDy=0;labelBackgroundColor=none;fontColor=default;fontSize=14;spacingTop=0;fillOpacity=100;" parent="bhZwOV67Gbov-zILEt_u-349" source="baaq-4lyddFwtSRx4nJD-1" target="baaq-4lyddFwtSRx4nJD-11" edge="1">
          <mxGeometry relative="1" as="geometry" />
        </mxCell>
        <mxCell id="baaq-4lyddFwtSRx4nJD-13" value="1.4&lt;br style=&quot;font-size: 14px;&quot;&gt;Manage feedback" style="rounded=0;whiteSpace=wrap;html=1;labelBackgroundColor=none;fontSize=14;spacingTop=0;fillOpacity=100;" parent="bhZwOV67Gbov-zILEt_u-349" vertex="1">
          <mxGeometry x="4850" y="350" width="120" height="60" as="geometry" />
        </mxCell>
        <mxCell id="baaq-4lyddFwtSRx4nJD-14" style="edgeStyle=orthogonalEdgeStyle;rounded=0;orthogonalLoop=1;jettySize=auto;html=1;entryX=0.5;entryY=0;entryDx=0;entryDy=0;labelBackgroundColor=none;fontColor=default;fontSize=14;spacingTop=0;fillOpacity=100;" parent="bhZwOV67Gbov-zILEt_u-349" source="baaq-4lyddFwtSRx4nJD-1" target="baaq-4lyddFwtSRx4nJD-13" edge="1">
          <mxGeometry relative="1" as="geometry" />
        </mxCell>
        <mxCell id="baaq-4lyddFwtSRx4nJD-16" value="1.1.2&lt;br style=&quot;font-size: 14px;&quot;&gt;Account Modification" style="rounded=0;whiteSpace=wrap;html=1;labelBackgroundColor=none;fontSize=14;spacingTop=0;fillOpacity=100;" parent="bhZwOV67Gbov-zILEt_u-349" vertex="1">
          <mxGeometry x="1790" y="590" width="120" height="60" as="geometry" />
        </mxCell>
        <mxCell id="baaq-4lyddFwtSRx4nJD-22" value="" style="endArrow=classic;html=1;rounded=0;entryX=0.5;entryY=0;entryDx=0;entryDy=0;exitX=0.5;exitY=1;exitDx=0;exitDy=0;labelBackgroundColor=none;fontColor=default;fontSize=14;spacingTop=0;fillOpacity=100;" parent="bhZwOV67Gbov-zILEt_u-349" source="baaq-4lyddFwtSRx4nJD-8" target="baaq-4lyddFwtSRx4nJD-16" edge="1">
          <mxGeometry width="50" height="50" relative="1" as="geometry">
            <mxPoint x="2350" y="510" as="sourcePoint" />
            <mxPoint x="2400" y="460" as="targetPoint" />
          </mxGeometry>
        </mxCell>
        <mxCell id="baaq-4lyddFwtSRx4nJD-45" value="1.2.1&lt;br style=&quot;font-size: 14px;&quot;&gt;Ride request" style="rounded=0;whiteSpace=wrap;html=1;labelBackgroundColor=none;fontSize=14;spacingTop=0;fillOpacity=100;" parent="bhZwOV67Gbov-zILEt_u-349" vertex="1">
          <mxGeometry x="2610" y="520" width="120" height="60" as="geometry" />
        </mxCell>
        <mxCell id="bhZwOV67Gbov-zILEt_u-87" style="edgeStyle=orthogonalEdgeStyle;rounded=0;orthogonalLoop=1;jettySize=auto;html=1;entryX=0.5;entryY=0;entryDx=0;entryDy=0;fontSize=14;spacingTop=0;fillOpacity=100;" edge="1" parent="bhZwOV67Gbov-zILEt_u-349" source="baaq-4lyddFwtSRx4nJD-10" target="baaq-4lyddFwtSRx4nJD-45">
          <mxGeometry relative="1" as="geometry" />
        </mxCell>
        <mxCell id="baaq-4lyddFwtSRx4nJD-46" value="1.2.2&lt;br style=&quot;font-size: 14px;&quot;&gt;Ride Cancellation&lt;br style=&quot;font-size: 14px;&quot;&gt;Request" style="rounded=0;whiteSpace=wrap;html=1;labelBackgroundColor=none;fontSize=14;spacingTop=0;fillOpacity=100;" parent="bhZwOV67Gbov-zILEt_u-349" vertex="1">
          <mxGeometry x="3220" y="520" width="120" height="60" as="geometry" />
        </mxCell>
        <mxCell id="bhZwOV67Gbov-zILEt_u-88" style="edgeStyle=orthogonalEdgeStyle;rounded=0;orthogonalLoop=1;jettySize=auto;html=1;entryX=0.5;entryY=0;entryDx=0;entryDy=0;fontSize=14;spacingTop=0;fillOpacity=100;" edge="1" parent="bhZwOV67Gbov-zILEt_u-349" source="baaq-4lyddFwtSRx4nJD-10" target="baaq-4lyddFwtSRx4nJD-46">
          <mxGeometry relative="1" as="geometry" />
        </mxCell>
        <mxCell id="bhZwOV67Gbov-zILEt_u-39" value="1.1.2.1&lt;br style=&quot;font-size: 14px;&quot;&gt;Autheticate User" style="rounded=0;whiteSpace=wrap;html=1;labelBackgroundColor=none;fontSize=14;spacingTop=0;fillOpacity=100;" vertex="1" parent="bhZwOV67Gbov-zILEt_u-349">
          <mxGeometry x="1410" y="780" width="120" height="60" as="geometry" />
        </mxCell>
        <mxCell id="bhZwOV67Gbov-zILEt_u-65" style="edgeStyle=orthogonalEdgeStyle;rounded=0;orthogonalLoop=1;jettySize=auto;html=1;entryX=0.5;entryY=0;entryDx=0;entryDy=0;fontSize=14;spacingTop=0;fillOpacity=100;" edge="1" parent="bhZwOV67Gbov-zILEt_u-349" source="baaq-4lyddFwtSRx4nJD-16" target="bhZwOV67Gbov-zILEt_u-39">
          <mxGeometry relative="1" as="geometry" />
        </mxCell>
        <mxCell id="bhZwOV67Gbov-zILEt_u-40" value="1.1.2.2&lt;br style=&quot;font-size: 14px;&quot;&gt;Retrieve Account Information" style="rounded=0;whiteSpace=wrap;html=1;labelBackgroundColor=none;fontSize=14;spacingTop=0;fillOpacity=100;" vertex="1" parent="bhZwOV67Gbov-zILEt_u-349">
          <mxGeometry x="1600" y="780" width="120" height="60" as="geometry" />
        </mxCell>
        <mxCell id="bhZwOV67Gbov-zILEt_u-66" style="edgeStyle=orthogonalEdgeStyle;rounded=0;orthogonalLoop=1;jettySize=auto;html=1;entryX=0.5;entryY=0;entryDx=0;entryDy=0;fontSize=14;spacingTop=0;fillOpacity=100;" edge="1" parent="bhZwOV67Gbov-zILEt_u-349" source="baaq-4lyddFwtSRx4nJD-16" target="bhZwOV67Gbov-zILEt_u-40">
          <mxGeometry relative="1" as="geometry">
            <mxPoint x="1610" y="760" as="targetPoint" />
            <Array as="points">
              <mxPoint x="1850" y="690" />
              <mxPoint x="1660" y="690" />
            </Array>
          </mxGeometry>
        </mxCell>
        <mxCell id="bhZwOV67Gbov-zILEt_u-43" value="1.1.2.4&lt;br style=&quot;font-size: 14px;&quot;&gt;Send Modification Confirmation" style="rounded=0;whiteSpace=wrap;html=1;labelBackgroundColor=none;fontSize=14;spacingTop=0;fillOpacity=100;" vertex="1" parent="bhZwOV67Gbov-zILEt_u-349">
          <mxGeometry x="2150" y="780" width="120" height="60" as="geometry" />
        </mxCell>
        <mxCell id="bhZwOV67Gbov-zILEt_u-69" style="edgeStyle=orthogonalEdgeStyle;rounded=0;orthogonalLoop=1;jettySize=auto;html=1;entryX=0.5;entryY=0;entryDx=0;entryDy=0;fontSize=14;spacingTop=0;fillOpacity=100;" edge="1" parent="bhZwOV67Gbov-zILEt_u-349" source="baaq-4lyddFwtSRx4nJD-16" target="bhZwOV67Gbov-zILEt_u-43">
          <mxGeometry relative="1" as="geometry" />
        </mxCell>
        <mxCell id="bhZwOV67Gbov-zILEt_u-44" value="1.1.2.3&lt;br style=&quot;font-size: 14px;&quot;&gt;Update Account Information" style="rounded=0;whiteSpace=wrap;html=1;labelBackgroundColor=none;fontSize=14;spacingTop=0;fillOpacity=100;" vertex="1" parent="bhZwOV67Gbov-zILEt_u-349">
          <mxGeometry x="1950" y="780" width="120" height="60" as="geometry" />
        </mxCell>
        <mxCell id="bhZwOV67Gbov-zILEt_u-68" style="edgeStyle=orthogonalEdgeStyle;rounded=0;orthogonalLoop=1;jettySize=auto;html=1;entryX=0.5;entryY=0;entryDx=0;entryDy=0;fontSize=14;spacingTop=0;fillOpacity=100;" edge="1" parent="bhZwOV67Gbov-zILEt_u-349" source="baaq-4lyddFwtSRx4nJD-16" target="bhZwOV67Gbov-zILEt_u-44">
          <mxGeometry relative="1" as="geometry">
            <Array as="points">
              <mxPoint x="1850" y="690" />
              <mxPoint x="2010" y="690" />
            </Array>
          </mxGeometry>
        </mxCell>
        <mxCell id="bhZwOV67Gbov-zILEt_u-70" value="" style="endArrow=classic;html=1;rounded=0;startArrow=oval;startFill=1;fontSize=14;labelBackgroundColor=none;fontColor=default;spacingTop=0;fillOpacity=100;" edge="1" parent="bhZwOV67Gbov-zILEt_u-349">
          <mxGeometry x="0.92" y="-64" width="50" height="50" relative="1" as="geometry">
            <mxPoint x="1830" y="540" as="sourcePoint" />
            <mxPoint x="1830" y="440" as="targetPoint" />
            <mxPoint as="offset" />
          </mxGeometry>
        </mxCell>
        <mxCell id="bhZwOV67Gbov-zILEt_u-71" value="Modification Success&lt;br style=&quot;font-size: 14px;&quot;&gt;Message" style="text;html=1;align=center;verticalAlign=middle;resizable=0;points=[];autosize=1;rotation=-90;fontSize=14;labelBackgroundColor=none;rounded=0;spacingTop=0;fillOpacity=100;" vertex="1" parent="bhZwOV67Gbov-zILEt_u-349">
          <mxGeometry x="1715" y="470" width="160" height="50" as="geometry" />
        </mxCell>
        <mxCell id="bhZwOV67Gbov-zILEt_u-72" value="" style="endArrow=classic;html=1;rounded=0;startArrow=oval;startFill=0;fontSize=14;labelBackgroundColor=none;fontColor=default;spacingTop=0;fillOpacity=100;" edge="1" parent="bhZwOV67Gbov-zILEt_u-349">
          <mxGeometry x="0.92" y="-64" width="50" height="50" relative="1" as="geometry">
            <mxPoint x="1680" y="610" as="sourcePoint" />
            <mxPoint x="1560" y="610" as="targetPoint" />
            <mxPoint as="offset" />
          </mxGeometry>
        </mxCell>
        <mxCell id="bhZwOV67Gbov-zILEt_u-73" value="Authoritiy of User Information" style="text;html=1;align=center;verticalAlign=middle;resizable=0;points=[];autosize=1;rotation=0;fontSize=14;labelBackgroundColor=none;rounded=0;spacingTop=0;fillOpacity=100;" vertex="1" parent="bhZwOV67Gbov-zILEt_u-349">
          <mxGeometry x="1525" y="580" width="200" height="30" as="geometry" />
        </mxCell>
        <mxCell id="bhZwOV67Gbov-zILEt_u-75" value="" style="endArrow=classic;html=1;rounded=0;startArrow=oval;startFill=1;fontSize=14;labelBackgroundColor=none;fontColor=default;spacingTop=0;fillOpacity=100;" edge="1" parent="bhZwOV67Gbov-zILEt_u-349">
          <mxGeometry x="0.92" y="-64" width="50" height="50" relative="1" as="geometry">
            <mxPoint x="2110" y="610" as="sourcePoint" />
            <mxPoint x="1970" y="610" as="targetPoint" />
            <mxPoint as="offset" />
          </mxGeometry>
        </mxCell>
        <mxCell id="bhZwOV67Gbov-zILEt_u-76" value="Modification Confirmation Message" style="text;html=1;align=center;verticalAlign=middle;resizable=0;points=[];autosize=1;rotation=0;fontSize=14;labelBackgroundColor=none;rounded=0;spacingTop=0;fillOpacity=100;" vertex="1" parent="bhZwOV67Gbov-zILEt_u-349">
          <mxGeometry x="1930" y="580" width="240" height="30" as="geometry" />
        </mxCell>
        <mxCell id="bhZwOV67Gbov-zILEt_u-77" value="" style="endArrow=classic;html=1;rounded=0;startArrow=oval;startFill=0;fontSize=14;labelBackgroundColor=none;fontColor=default;spacingTop=0;fillOpacity=100;" edge="1" parent="bhZwOV67Gbov-zILEt_u-349">
          <mxGeometry x="0.92" y="-64" width="50" height="50" relative="1" as="geometry">
            <mxPoint x="1650" y="700" as="sourcePoint" />
            <mxPoint x="1650" y="760" as="targetPoint" />
            <mxPoint as="offset" />
          </mxGeometry>
        </mxCell>
        <mxCell id="bhZwOV67Gbov-zILEt_u-78" value="User Information" style="text;html=1;align=center;verticalAlign=middle;resizable=0;points=[];autosize=1;rotation=-90;fontSize=14;labelBackgroundColor=none;rounded=0;spacingTop=0;fillOpacity=100;" vertex="1" parent="bhZwOV67Gbov-zILEt_u-349">
          <mxGeometry x="1575" y="710" width="130" height="30" as="geometry" />
        </mxCell>
        <mxCell id="bhZwOV67Gbov-zILEt_u-84" value="" style="endArrow=classic;html=1;rounded=0;startArrow=oval;startFill=1;fontSize=14;labelBackgroundColor=none;fontColor=default;spacingTop=0;fillOpacity=100;" edge="1" parent="bhZwOV67Gbov-zILEt_u-349">
          <mxGeometry x="0.92" y="-64" width="50" height="50" relative="1" as="geometry">
            <mxPoint x="2020" y="750" as="sourcePoint" />
            <mxPoint x="2020" y="700" as="targetPoint" />
            <mxPoint as="offset" />
          </mxGeometry>
        </mxCell>
        <mxCell id="bhZwOV67Gbov-zILEt_u-86" value="Updated Account&lt;br style=&quot;font-size: 14px;&quot;&gt;Information" style="text;html=1;align=center;verticalAlign=middle;resizable=0;points=[];autosize=1;rotation=90;fontSize=14;labelBackgroundColor=none;rounded=0;spacingTop=0;fillOpacity=100;" vertex="1" parent="bhZwOV67Gbov-zILEt_u-349">
          <mxGeometry x="1980" y="700" width="130" height="50" as="geometry" />
        </mxCell>
        <mxCell id="bhZwOV67Gbov-zILEt_u-89" value="1.2.1.1&lt;br style=&quot;font-size: 14px;&quot;&gt;Authenticate User" style="rounded=0;whiteSpace=wrap;html=1;labelBackgroundColor=none;fontSize=14;spacingTop=0;fillOpacity=100;" vertex="1" parent="bhZwOV67Gbov-zILEt_u-349">
          <mxGeometry x="2350" y="770" width="120" height="60" as="geometry" />
        </mxCell>
        <mxCell id="bhZwOV67Gbov-zILEt_u-93" style="edgeStyle=orthogonalEdgeStyle;rounded=0;orthogonalLoop=1;jettySize=auto;html=1;entryX=0.5;entryY=0;entryDx=0;entryDy=0;fontSize=14;spacingTop=0;fillOpacity=100;" edge="1" parent="bhZwOV67Gbov-zILEt_u-349" source="baaq-4lyddFwtSRx4nJD-45" target="bhZwOV67Gbov-zILEt_u-89">
          <mxGeometry relative="1" as="geometry" />
        </mxCell>
        <mxCell id="bhZwOV67Gbov-zILEt_u-90" value="1.2.1.3&lt;br style=&quot;font-size: 14px;&quot;&gt;Select Available Drivers" style="rounded=0;whiteSpace=wrap;html=1;labelBackgroundColor=none;fontSize=14;spacingTop=0;fillOpacity=100;" vertex="1" parent="bhZwOV67Gbov-zILEt_u-349">
          <mxGeometry x="2710" y="770" width="120" height="60" as="geometry" />
        </mxCell>
        <mxCell id="bhZwOV67Gbov-zILEt_u-95" style="edgeStyle=orthogonalEdgeStyle;rounded=0;orthogonalLoop=1;jettySize=auto;html=1;entryX=0.5;entryY=0;entryDx=0;entryDy=0;fontSize=14;spacingTop=0;fillOpacity=100;" edge="1" parent="bhZwOV67Gbov-zILEt_u-349" source="baaq-4lyddFwtSRx4nJD-45" target="bhZwOV67Gbov-zILEt_u-90">
          <mxGeometry relative="1" as="geometry" />
        </mxCell>
        <mxCell id="bhZwOV67Gbov-zILEt_u-91" value="1.2.1.2&lt;br style=&quot;font-size: 14px;&quot;&gt;Collect Ride details" style="rounded=0;whiteSpace=wrap;html=1;labelBackgroundColor=none;fontSize=14;spacingTop=0;fillOpacity=100;" vertex="1" parent="bhZwOV67Gbov-zILEt_u-349">
          <mxGeometry x="2500" y="770" width="120" height="60" as="geometry" />
        </mxCell>
        <mxCell id="bhZwOV67Gbov-zILEt_u-94" style="edgeStyle=orthogonalEdgeStyle;rounded=0;orthogonalLoop=1;jettySize=auto;html=1;entryX=0.5;entryY=0;entryDx=0;entryDy=0;fontSize=14;spacingTop=0;fillOpacity=100;" edge="1" parent="bhZwOV67Gbov-zILEt_u-349" source="baaq-4lyddFwtSRx4nJD-45" target="bhZwOV67Gbov-zILEt_u-91">
          <mxGeometry relative="1" as="geometry" />
        </mxCell>
        <mxCell id="bhZwOV67Gbov-zILEt_u-92" value="1.2.1.4&lt;br style=&quot;border-color: var(--border-color); font-size: 14px;&quot;&gt;Send Ride Request&lt;br style=&quot;border-color: var(--border-color); font-size: 14px;&quot;&gt;Notification" style="rounded=0;whiteSpace=wrap;html=1;labelBackgroundColor=none;fontSize=14;spacingTop=0;fillOpacity=100;" vertex="1" parent="bhZwOV67Gbov-zILEt_u-349">
          <mxGeometry x="2850" y="770" width="120" height="60" as="geometry" />
        </mxCell>
        <mxCell id="bhZwOV67Gbov-zILEt_u-96" style="edgeStyle=orthogonalEdgeStyle;rounded=0;orthogonalLoop=1;jettySize=auto;html=1;entryX=0.5;entryY=0;entryDx=0;entryDy=0;fontSize=14;spacingTop=0;fillOpacity=100;" edge="1" parent="bhZwOV67Gbov-zILEt_u-349" source="baaq-4lyddFwtSRx4nJD-45" target="bhZwOV67Gbov-zILEt_u-92">
          <mxGeometry relative="1" as="geometry" />
        </mxCell>
        <mxCell id="bhZwOV67Gbov-zILEt_u-99" value="1.2.2.1&lt;br style=&quot;font-size: 14px;&quot;&gt;Retrieve Ride Details" style="rounded=0;whiteSpace=wrap;html=1;labelBackgroundColor=none;fontSize=14;spacingTop=0;fillOpacity=100;" vertex="1" parent="bhZwOV67Gbov-zILEt_u-349">
          <mxGeometry x="3080" y="770" width="120" height="60" as="geometry" />
        </mxCell>
        <mxCell id="bhZwOV67Gbov-zILEt_u-97" style="edgeStyle=orthogonalEdgeStyle;rounded=0;orthogonalLoop=1;jettySize=auto;html=1;entryX=0.5;entryY=0;entryDx=0;entryDy=0;fontSize=14;spacingTop=0;fillOpacity=100;" edge="1" parent="bhZwOV67Gbov-zILEt_u-349" source="baaq-4lyddFwtSRx4nJD-46" target="bhZwOV67Gbov-zILEt_u-99">
          <mxGeometry relative="1" as="geometry">
            <mxPoint x="3150" y="890" as="targetPoint" />
          </mxGeometry>
        </mxCell>
        <mxCell id="bhZwOV67Gbov-zILEt_u-100" value="1.2.2.2&lt;br style=&quot;font-size: 14px;&quot;&gt;Request Ride Cancellation" style="rounded=0;whiteSpace=wrap;html=1;labelBackgroundColor=none;fontSize=14;spacingTop=0;fillOpacity=100;" vertex="1" parent="bhZwOV67Gbov-zILEt_u-349">
          <mxGeometry x="3320" y="770" width="120" height="60" as="geometry" />
        </mxCell>
        <mxCell id="bhZwOV67Gbov-zILEt_u-98" style="edgeStyle=orthogonalEdgeStyle;rounded=0;orthogonalLoop=1;jettySize=auto;html=1;entryX=0.5;entryY=0;entryDx=0;entryDy=0;exitX=1;exitY=0.5;exitDx=0;exitDy=0;fontSize=14;spacingTop=0;fillOpacity=100;" edge="1" parent="bhZwOV67Gbov-zILEt_u-349" source="baaq-4lyddFwtSRx4nJD-46" target="bhZwOV67Gbov-zILEt_u-100">
          <mxGeometry relative="1" as="geometry">
            <mxPoint x="3380" y="890" as="targetPoint" />
          </mxGeometry>
        </mxCell>
        <mxCell id="bhZwOV67Gbov-zILEt_u-107" value="1.3.4&lt;br style=&quot;font-size: 14px;&quot;&gt;Send Payment Confirmation" style="rounded=0;whiteSpace=wrap;html=1;labelBackgroundColor=none;fontSize=14;spacingTop=0;fillOpacity=100;" vertex="1" parent="bhZwOV67Gbov-zILEt_u-349">
          <mxGeometry x="4150" y="510" width="120" height="60" as="geometry" />
        </mxCell>
        <mxCell id="bhZwOV67Gbov-zILEt_u-120" style="edgeStyle=orthogonalEdgeStyle;rounded=0;orthogonalLoop=1;jettySize=auto;html=1;entryX=0.5;entryY=0;entryDx=0;entryDy=0;fontSize=14;spacingTop=0;fillOpacity=100;" edge="1" parent="bhZwOV67Gbov-zILEt_u-349" source="baaq-4lyddFwtSRx4nJD-11" target="bhZwOV67Gbov-zILEt_u-107">
          <mxGeometry relative="1" as="geometry" />
        </mxCell>
        <mxCell id="bhZwOV67Gbov-zILEt_u-109" value="1.3.1&lt;br style=&quot;font-size: 14px;&quot;&gt;Collect Payment Details" style="rounded=0;whiteSpace=wrap;html=1;labelBackgroundColor=none;fontSize=14;spacingTop=0;fillOpacity=100;" vertex="1" parent="bhZwOV67Gbov-zILEt_u-349">
          <mxGeometry x="3700" y="510" width="120" height="60" as="geometry" />
        </mxCell>
        <mxCell id="bhZwOV67Gbov-zILEt_u-117" style="edgeStyle=orthogonalEdgeStyle;rounded=0;orthogonalLoop=1;jettySize=auto;html=1;entryX=0.5;entryY=0;entryDx=0;entryDy=0;fontSize=14;spacingTop=0;fillOpacity=100;" edge="1" parent="bhZwOV67Gbov-zILEt_u-349" source="baaq-4lyddFwtSRx4nJD-11" target="bhZwOV67Gbov-zILEt_u-109">
          <mxGeometry relative="1" as="geometry" />
        </mxCell>
        <mxCell id="bhZwOV67Gbov-zILEt_u-110" value="1.3.3&lt;br style=&quot;font-size: 14px;&quot;&gt;Process Payment Transaction" style="rounded=0;whiteSpace=wrap;html=1;labelBackgroundColor=none;fontSize=14;spacingTop=0;fillOpacity=100;" vertex="1" parent="bhZwOV67Gbov-zILEt_u-349">
          <mxGeometry x="4000" y="510" width="120" height="60" as="geometry" />
        </mxCell>
        <mxCell id="bhZwOV67Gbov-zILEt_u-119" style="edgeStyle=orthogonalEdgeStyle;rounded=0;orthogonalLoop=1;jettySize=auto;html=1;entryX=0.5;entryY=0;entryDx=0;entryDy=0;fontSize=14;spacingTop=0;fillOpacity=100;" edge="1" parent="bhZwOV67Gbov-zILEt_u-349" source="baaq-4lyddFwtSRx4nJD-11" target="bhZwOV67Gbov-zILEt_u-110">
          <mxGeometry relative="1" as="geometry" />
        </mxCell>
        <mxCell id="bhZwOV67Gbov-zILEt_u-111" value="1.3.2&lt;br style=&quot;font-size: 14px;&quot;&gt;Validate Payment Data" style="rounded=0;whiteSpace=wrap;html=1;labelBackgroundColor=none;fontSize=14;spacingTop=0;fillOpacity=100;" vertex="1" parent="bhZwOV67Gbov-zILEt_u-349">
          <mxGeometry x="3850" y="510" width="120" height="60" as="geometry" />
        </mxCell>
        <mxCell id="bhZwOV67Gbov-zILEt_u-118" style="edgeStyle=orthogonalEdgeStyle;rounded=0;orthogonalLoop=1;jettySize=auto;html=1;entryX=0.5;entryY=0;entryDx=0;entryDy=0;fontSize=14;spacingTop=0;fillOpacity=100;" edge="1" parent="bhZwOV67Gbov-zILEt_u-349" source="baaq-4lyddFwtSRx4nJD-11" target="bhZwOV67Gbov-zILEt_u-111">
          <mxGeometry relative="1" as="geometry" />
        </mxCell>
        <mxCell id="bhZwOV67Gbov-zILEt_u-121" value="1.4.2&lt;br style=&quot;font-size: 14px;&quot;&gt;Report Outcome" style="rounded=0;whiteSpace=wrap;html=1;labelBackgroundColor=none;fontSize=14;spacingTop=0;fillOpacity=100;" vertex="1" parent="bhZwOV67Gbov-zILEt_u-349">
          <mxGeometry x="5220" y="500" width="120" height="60" as="geometry" />
        </mxCell>
        <mxCell id="bhZwOV67Gbov-zILEt_u-124" style="edgeStyle=orthogonalEdgeStyle;rounded=0;orthogonalLoop=1;jettySize=auto;html=1;entryX=0.5;entryY=0;entryDx=0;entryDy=0;exitX=1;exitY=0.5;exitDx=0;exitDy=0;fontSize=14;spacingTop=0;fillOpacity=100;" edge="1" parent="bhZwOV67Gbov-zILEt_u-349" source="baaq-4lyddFwtSRx4nJD-13" target="bhZwOV67Gbov-zILEt_u-121">
          <mxGeometry relative="1" as="geometry" />
        </mxCell>
        <mxCell id="bhZwOV67Gbov-zILEt_u-122" value="1.4.1&lt;br style=&quot;font-size: 14px;&quot;&gt;Feedback Submission" style="rounded=0;whiteSpace=wrap;html=1;labelBackgroundColor=none;fontSize=14;spacingTop=0;fillOpacity=100;" vertex="1" parent="bhZwOV67Gbov-zILEt_u-349">
          <mxGeometry x="4520" y="500" width="120" height="60" as="geometry" />
        </mxCell>
        <mxCell id="bhZwOV67Gbov-zILEt_u-123" style="edgeStyle=orthogonalEdgeStyle;rounded=0;orthogonalLoop=1;jettySize=auto;html=1;entryX=0.5;entryY=0;entryDx=0;entryDy=0;fontSize=14;spacingTop=0;fillOpacity=100;" edge="1" parent="bhZwOV67Gbov-zILEt_u-349" source="baaq-4lyddFwtSRx4nJD-13" target="bhZwOV67Gbov-zILEt_u-122">
          <mxGeometry relative="1" as="geometry" />
        </mxCell>
        <mxCell id="bhZwOV67Gbov-zILEt_u-125" value="1.4.1.1&lt;br style=&quot;font-size: 14px;&quot;&gt;Retrieve Ride Details" style="rounded=0;whiteSpace=wrap;html=1;labelBackgroundColor=none;fontSize=14;spacingTop=0;fillOpacity=100;" vertex="1" parent="bhZwOV67Gbov-zILEt_u-349">
          <mxGeometry x="4245" y="760" width="120" height="60" as="geometry" />
        </mxCell>
        <mxCell id="bhZwOV67Gbov-zILEt_u-130" style="edgeStyle=orthogonalEdgeStyle;orthogonalLoop=1;jettySize=auto;html=1;entryX=0.5;entryY=0;entryDx=0;entryDy=0;rounded=0;fontSize=14;spacingTop=0;fillOpacity=100;" edge="1" parent="bhZwOV67Gbov-zILEt_u-349" source="bhZwOV67Gbov-zILEt_u-122" target="bhZwOV67Gbov-zILEt_u-125">
          <mxGeometry relative="1" as="geometry" />
        </mxCell>
        <mxCell id="bhZwOV67Gbov-zILEt_u-126" value="1.4.1.2&lt;br style=&quot;font-size: 14px;&quot;&gt;Collect Driver Feedback" style="rounded=0;whiteSpace=wrap;html=1;labelBackgroundColor=none;fontSize=14;spacingTop=0;fillOpacity=100;" vertex="1" parent="bhZwOV67Gbov-zILEt_u-349">
          <mxGeometry x="4415" y="760" width="120" height="60" as="geometry" />
        </mxCell>
        <mxCell id="bhZwOV67Gbov-zILEt_u-131" style="edgeStyle=orthogonalEdgeStyle;orthogonalLoop=1;jettySize=auto;html=1;entryX=0.5;entryY=0;entryDx=0;entryDy=0;rounded=0;fontSize=14;spacingTop=0;fillOpacity=100;" edge="1" parent="bhZwOV67Gbov-zILEt_u-349" source="bhZwOV67Gbov-zILEt_u-122" target="bhZwOV67Gbov-zILEt_u-126">
          <mxGeometry relative="1" as="geometry" />
        </mxCell>
        <mxCell id="bhZwOV67Gbov-zILEt_u-127" value="1.4.1.4&lt;br style=&quot;font-size: 14px;&quot;&gt;Send Feedback&lt;br style=&quot;font-size: 14px;&quot;&gt;Confirmation" style="rounded=0;whiteSpace=wrap;html=1;labelBackgroundColor=none;fontSize=14;spacingTop=0;fillOpacity=100;" vertex="1" parent="bhZwOV67Gbov-zILEt_u-349">
          <mxGeometry x="4795" y="760" width="120" height="60" as="geometry" />
        </mxCell>
        <mxCell id="bhZwOV67Gbov-zILEt_u-133" style="edgeStyle=orthogonalEdgeStyle;orthogonalLoop=1;jettySize=auto;html=1;entryX=0.5;entryY=0;entryDx=0;entryDy=0;rounded=0;fontSize=14;spacingTop=0;fillOpacity=100;" edge="1" parent="bhZwOV67Gbov-zILEt_u-349" source="bhZwOV67Gbov-zILEt_u-122" target="bhZwOV67Gbov-zILEt_u-127">
          <mxGeometry relative="1" as="geometry" />
        </mxCell>
        <mxCell id="bhZwOV67Gbov-zILEt_u-128" value="1.4.1.3&lt;br style=&quot;font-size: 14px;&quot;&gt;Store Feedback Data" style="rounded=0;whiteSpace=wrap;html=1;labelBackgroundColor=none;fontSize=14;spacingTop=0;fillOpacity=100;" vertex="1" parent="bhZwOV67Gbov-zILEt_u-349">
          <mxGeometry x="4595" y="760" width="120" height="60" as="geometry" />
        </mxCell>
        <mxCell id="bhZwOV67Gbov-zILEt_u-132" value="" style="edgeStyle=orthogonalEdgeStyle;orthogonalLoop=1;jettySize=auto;entryX=0.5;entryY=0;entryDx=0;entryDy=0;html=1;rounded=0;fontSize=14;spacingTop=0;fillOpacity=100;" edge="1" parent="bhZwOV67Gbov-zILEt_u-349" source="bhZwOV67Gbov-zILEt_u-122" target="bhZwOV67Gbov-zILEt_u-128">
          <mxGeometry relative="1" as="geometry" />
        </mxCell>
        <mxCell id="bhZwOV67Gbov-zILEt_u-134" value="1.4.2.1&lt;br style=&quot;font-size: 14px;&quot;&gt;Retrieve Report Details" style="rounded=0;whiteSpace=wrap;html=1;labelBackgroundColor=none;fontSize=14;spacingTop=0;fillOpacity=100;" vertex="1" parent="bhZwOV67Gbov-zILEt_u-349">
          <mxGeometry x="5050" y="760" width="120" height="60" as="geometry" />
        </mxCell>
        <mxCell id="bhZwOV67Gbov-zILEt_u-135" value="1.4.2.3&lt;br style=&quot;font-size: 14px;&quot;&gt;Notify User of Outcome" style="rounded=0;whiteSpace=wrap;html=1;labelBackgroundColor=none;fontSize=14;spacingTop=0;fillOpacity=100;" vertex="1" parent="bhZwOV67Gbov-zILEt_u-349">
          <mxGeometry x="5380" y="760" width="120" height="60" as="geometry" />
        </mxCell>
        <mxCell id="bhZwOV67Gbov-zILEt_u-136" value="1.4.2.2&lt;br style=&quot;font-size: 14px;&quot;&gt;Evaluate Reported Incident" style="rounded=0;whiteSpace=wrap;html=1;labelBackgroundColor=none;fontSize=14;spacingTop=0;fillOpacity=100;" vertex="1" parent="bhZwOV67Gbov-zILEt_u-349">
          <mxGeometry x="5220" y="760" width="120" height="60" as="geometry" />
        </mxCell>
        <mxCell id="bhZwOV67Gbov-zILEt_u-141" value="" style="endArrow=classic;html=1;rounded=0;startArrow=oval;startFill=0;fontSize=14;labelBackgroundColor=none;fontColor=default;spacingTop=0;fillOpacity=100;" edge="1" parent="bhZwOV67Gbov-zILEt_u-349">
          <mxGeometry x="0.92" y="-64" width="50" height="50" relative="1" as="geometry">
            <mxPoint x="2850" y="359.58000000000004" as="sourcePoint" />
            <mxPoint x="2730" y="359.58000000000004" as="targetPoint" />
            <mxPoint as="offset" />
          </mxGeometry>
        </mxCell>
        <mxCell id="bhZwOV67Gbov-zILEt_u-142" value="Ride details" style="text;html=1;align=center;verticalAlign=middle;resizable=0;points=[];autosize=1;fontSize=14;spacingTop=0;fillOpacity=100;" vertex="1" parent="bhZwOV67Gbov-zILEt_u-349">
          <mxGeometry x="2755" y="330" width="100" height="30" as="geometry" />
        </mxCell>
        <mxCell id="bhZwOV67Gbov-zILEt_u-143" value="Ride details" style="text;html=1;align=center;verticalAlign=middle;resizable=0;points=[];autosize=1;fontSize=14;spacingTop=0;fillOpacity=100;" vertex="1" parent="bhZwOV67Gbov-zILEt_u-349">
          <mxGeometry x="3105" y="330" width="100" height="30" as="geometry" />
        </mxCell>
        <mxCell id="bhZwOV67Gbov-zILEt_u-144" value="" style="endArrow=classic;html=1;rounded=0;startArrow=oval;startFill=0;fontSize=14;labelBackgroundColor=none;fontColor=default;spacingTop=0;fillOpacity=100;" edge="1" parent="bhZwOV67Gbov-zILEt_u-349">
          <mxGeometry x="0.92" y="-64" width="50" height="50" relative="1" as="geometry">
            <mxPoint x="3090" y="360" as="sourcePoint" />
            <mxPoint x="3210" y="360" as="targetPoint" />
            <mxPoint as="offset" />
          </mxGeometry>
        </mxCell>
        <mxCell id="bhZwOV67Gbov-zILEt_u-145" value="" style="endArrow=classic;html=1;rounded=0;startArrow=oval;startFill=0;fontSize=14;labelBackgroundColor=none;fontColor=default;spacingTop=0;fillOpacity=100;" edge="1" parent="bhZwOV67Gbov-zILEt_u-349">
          <mxGeometry x="0.92" y="-64" width="50" height="50" relative="1" as="geometry">
            <mxPoint x="2560" y="544.58" as="sourcePoint" />
            <mxPoint x="2440" y="544.58" as="targetPoint" />
            <mxPoint as="offset" />
          </mxGeometry>
        </mxCell>
        <mxCell id="bhZwOV67Gbov-zILEt_u-146" value="Authoritiy of User Information" style="text;html=1;align=center;verticalAlign=middle;resizable=0;points=[];autosize=1;rotation=0;fontSize=14;labelBackgroundColor=none;rounded=0;spacingTop=0;fillOpacity=100;" vertex="1" parent="bhZwOV67Gbov-zILEt_u-349">
          <mxGeometry x="2405" y="514.58" width="200" height="30" as="geometry" />
        </mxCell>
        <mxCell id="bhZwOV67Gbov-zILEt_u-147" value="" style="endArrow=classic;html=1;rounded=0;startArrow=oval;startFill=0;fontSize=14;labelBackgroundColor=none;fontColor=default;spacingTop=0;fillOpacity=100;" edge="1" parent="bhZwOV67Gbov-zILEt_u-349">
          <mxGeometry x="0.92" y="-64" width="50" height="50" relative="1" as="geometry">
            <mxPoint x="2590" y="670" as="sourcePoint" />
            <mxPoint x="2540" y="670" as="targetPoint" />
            <mxPoint as="offset" />
          </mxGeometry>
        </mxCell>
        <mxCell id="bhZwOV67Gbov-zILEt_u-148" value="Ride details" style="text;html=1;align=center;verticalAlign=middle;resizable=0;points=[];autosize=1;fontSize=14;spacingTop=0;fillOpacity=100;" vertex="1" parent="bhZwOV67Gbov-zILEt_u-349">
          <mxGeometry x="2515" y="640" width="100" height="30" as="geometry" />
        </mxCell>
        <mxCell id="bhZwOV67Gbov-zILEt_u-151" value="" style="endArrow=classic;html=1;rounded=0;startArrow=oval;startFill=1;fontSize=14;labelBackgroundColor=none;fontColor=default;exitX=0.5;exitY=0.997;exitDx=0;exitDy=0;exitPerimeter=0;spacingTop=0;fillOpacity=100;" edge="1" parent="bhZwOV67Gbov-zILEt_u-349" source="bhZwOV67Gbov-zILEt_u-152">
          <mxGeometry x="0.92" y="-64" width="50" height="50" relative="1" as="geometry">
            <mxPoint x="2810" y="670" as="sourcePoint" />
            <mxPoint x="2680" y="669.1700000000001" as="targetPoint" />
            <mxPoint as="offset" />
          </mxGeometry>
        </mxCell>
        <mxCell id="bhZwOV67Gbov-zILEt_u-152" value="Selected car information" style="text;html=1;align=center;verticalAlign=middle;resizable=0;points=[];autosize=1;fontSize=14;spacingTop=0;fillOpacity=100;" vertex="1" parent="bhZwOV67Gbov-zILEt_u-349">
          <mxGeometry x="2670" y="639.5899999999999" width="170" height="30" as="geometry" />
        </mxCell>
        <mxCell id="bhZwOV67Gbov-zILEt_u-138" style="edgeStyle=orthogonalEdgeStyle;orthogonalLoop=1;jettySize=auto;html=1;entryX=0.5;entryY=0;entryDx=0;entryDy=0;rounded=0;fontSize=14;spacingTop=0;fillOpacity=100;" edge="1" parent="bhZwOV67Gbov-zILEt_u-349" source="bhZwOV67Gbov-zILEt_u-121" target="bhZwOV67Gbov-zILEt_u-134">
          <mxGeometry relative="1" as="geometry" />
        </mxCell>
        <mxCell id="bhZwOV67Gbov-zILEt_u-154" style="edgeStyle=orthogonalEdgeStyle;orthogonalLoop=1;jettySize=auto;html=1;entryX=0.5;entryY=1;entryDx=0;entryDy=0;fontSize=14;spacingTop=0;fillOpacity=100;" edge="1" parent="bhZwOV67Gbov-zILEt_u-349" source="bhZwOV67Gbov-zILEt_u-92" target="bhZwOV67Gbov-zILEt_u-92">
          <mxGeometry relative="1" as="geometry" />
        </mxCell>
        <mxCell id="bhZwOV67Gbov-zILEt_u-156" value="" style="endArrow=classic;html=1;rounded=0;startArrow=oval;startFill=1;fontSize=14;labelBackgroundColor=none;fontColor=default;spacingTop=0;fillOpacity=100;" edge="1" parent="bhZwOV67Gbov-zILEt_u-349">
          <mxGeometry x="0.92" y="-64" width="50" height="50" relative="1" as="geometry">
            <mxPoint x="2920" y="690" as="sourcePoint" />
            <mxPoint x="2920" y="640" as="targetPoint" />
            <mxPoint as="offset" />
          </mxGeometry>
        </mxCell>
        <mxCell id="bhZwOV67Gbov-zILEt_u-157" value="Ride Reuqest&lt;br style=&quot;font-size: 14px;&quot;&gt;Notification" style="text;html=1;align=center;verticalAlign=middle;resizable=0;points=[];autosize=1;rotation=90;fontSize=14;spacingTop=0;fillOpacity=100;" vertex="1" parent="bhZwOV67Gbov-zILEt_u-349">
          <mxGeometry x="2895" y="635" width="110" height="50" as="geometry" />
        </mxCell>
        <mxCell id="bhZwOV67Gbov-zILEt_u-158" value="" style="endArrow=classic;html=1;rounded=0;startArrow=oval;startFill=0;fontSize=14;labelBackgroundColor=none;fontColor=default;spacingTop=0;fillOpacity=100;" edge="1" parent="bhZwOV67Gbov-zILEt_u-349">
          <mxGeometry x="0.92" y="-64" width="50" height="50" relative="1" as="geometry">
            <mxPoint x="3200" y="539.58" as="sourcePoint" />
            <mxPoint x="3140" y="540" as="targetPoint" />
            <mxPoint as="offset" />
          </mxGeometry>
        </mxCell>
        <mxCell id="bhZwOV67Gbov-zILEt_u-159" value="Ride details" style="text;html=1;align=center;verticalAlign=middle;resizable=0;points=[];autosize=1;fontSize=14;spacingTop=0;fillOpacity=100;" vertex="1" parent="bhZwOV67Gbov-zILEt_u-349">
          <mxGeometry x="3105" y="510" width="100" height="30" as="geometry" />
        </mxCell>
        <mxCell id="bhZwOV67Gbov-zILEt_u-160" value="" style="endArrow=classic;html=1;rounded=0;startArrow=oval;startFill=1;fontSize=14;labelBackgroundColor=none;fontColor=default;spacingTop=0;fillOpacity=100;" edge="1" parent="bhZwOV67Gbov-zILEt_u-349">
          <mxGeometry x="0.92" y="-64" width="50" height="50" relative="1" as="geometry">
            <mxPoint x="3390" y="700" as="sourcePoint" />
            <mxPoint x="3390" y="650" as="targetPoint" />
            <mxPoint as="offset" />
          </mxGeometry>
        </mxCell>
        <mxCell id="bhZwOV67Gbov-zILEt_u-162" value="Ride Request&lt;br style=&quot;font-size: 14px;&quot;&gt;Cancellation&lt;br style=&quot;font-size: 14px;&quot;&gt;Message" style="text;html=1;align=center;verticalAlign=middle;resizable=0;points=[];autosize=1;rotation=90;fontSize=14;spacingTop=0;fillOpacity=100;" vertex="1" parent="bhZwOV67Gbov-zILEt_u-349">
          <mxGeometry x="3365" y="640" width="110" height="60" as="geometry" />
        </mxCell>
        <mxCell id="bhZwOV67Gbov-zILEt_u-165" value="" style="endArrow=classic;html=1;rounded=0;startArrow=oval;startFill=0;fontSize=14;labelBackgroundColor=none;fontColor=default;spacingTop=0;fillOpacity=100;" edge="1" parent="bhZwOV67Gbov-zILEt_u-349">
          <mxGeometry x="0.92" y="-64" width="50" height="50" relative="1" as="geometry">
            <mxPoint x="3890" y="360" as="sourcePoint" />
            <mxPoint x="3790" y="360" as="targetPoint" />
            <mxPoint as="offset" />
          </mxGeometry>
        </mxCell>
        <mxCell id="bhZwOV67Gbov-zILEt_u-166" value="Payment Details" style="text;html=1;align=center;verticalAlign=middle;resizable=0;points=[];autosize=1;fontSize=14;spacingTop=0;fillOpacity=100;" vertex="1" parent="bhZwOV67Gbov-zILEt_u-349">
          <mxGeometry x="3780" y="330" width="130" height="30" as="geometry" />
        </mxCell>
        <mxCell id="bhZwOV67Gbov-zILEt_u-167" value="" style="endArrow=classic;html=1;rounded=0;startArrow=oval;startFill=0;fontSize=14;labelBackgroundColor=none;fontColor=default;spacingTop=0;fillOpacity=100;" edge="1" parent="bhZwOV67Gbov-zILEt_u-349">
          <mxGeometry x="0.92" y="-64" width="50" height="50" relative="1" as="geometry">
            <mxPoint x="3900" y="490" as="sourcePoint" />
            <mxPoint x="3900" y="450" as="targetPoint" />
            <mxPoint as="offset" />
          </mxGeometry>
        </mxCell>
        <mxCell id="bhZwOV67Gbov-zILEt_u-168" value="Validation Succes&lt;br style=&quot;font-size: 14px;&quot;&gt;&amp;nbsp;message" style="text;html=1;align=center;verticalAlign=middle;resizable=0;points=[];autosize=1;rotation=-90;fontSize=14;spacingTop=0;fillOpacity=100;" vertex="1" parent="bhZwOV67Gbov-zILEt_u-349">
          <mxGeometry x="3815" y="435" width="130" height="50" as="geometry" />
        </mxCell>
        <mxCell id="bhZwOV67Gbov-zILEt_u-169" value="" style="endArrow=classic;html=1;rounded=0;startArrow=oval;startFill=0;fontSize=14;labelBackgroundColor=none;fontColor=default;spacingTop=0;fillOpacity=100;" edge="1" parent="bhZwOV67Gbov-zILEt_u-349">
          <mxGeometry x="0.92" y="-64" width="50" height="50" relative="1" as="geometry">
            <mxPoint x="4070" y="490" as="sourcePoint" />
            <mxPoint x="4070" y="450" as="targetPoint" />
            <mxPoint as="offset" />
          </mxGeometry>
        </mxCell>
        <mxCell id="bhZwOV67Gbov-zILEt_u-172" value="Payment Transaction&lt;br style=&quot;font-size: 14px;&quot;&gt;&amp;nbsp;Success Message" style="text;html=1;align=center;verticalAlign=middle;resizable=0;points=[];autosize=1;rotation=90;fontSize=14;spacingTop=0;fillOpacity=100;" vertex="1" parent="bhZwOV67Gbov-zILEt_u-349">
          <mxGeometry x="4010" y="425" width="160" height="50" as="geometry" />
        </mxCell>
        <mxCell id="bhZwOV67Gbov-zILEt_u-177" value="" style="endArrow=classic;html=1;rounded=0;startArrow=oval;startFill=0;fontSize=14;labelBackgroundColor=none;fontColor=default;spacingTop=0;fillOpacity=100;" edge="1" parent="bhZwOV67Gbov-zILEt_u-349">
          <mxGeometry x="0.92" y="-64" width="50" height="50" relative="1" as="geometry">
            <mxPoint x="4200" y="360" as="sourcePoint" />
            <mxPoint x="4100" y="360" as="targetPoint" />
            <mxPoint as="offset" />
          </mxGeometry>
        </mxCell>
        <mxCell id="bhZwOV67Gbov-zILEt_u-178" value="Payment Confirmation Message" style="text;html=1;align=center;verticalAlign=middle;resizable=0;points=[];autosize=1;fontSize=14;spacingTop=0;fillOpacity=100;" vertex="1" parent="bhZwOV67Gbov-zILEt_u-349">
          <mxGeometry x="4040" y="330" width="220" height="30" as="geometry" />
        </mxCell>
        <mxCell id="bhZwOV67Gbov-zILEt_u-180" value="" style="endArrow=classic;html=1;rounded=0;startArrow=oval;startFill=0;fontSize=14;labelBackgroundColor=none;fontColor=default;spacingTop=0;fillOpacity=100;" edge="1" parent="bhZwOV67Gbov-zILEt_u-349">
          <mxGeometry x="0.92" y="-64" width="50" height="50" relative="1" as="geometry">
            <mxPoint x="4760" y="369.57000000000005" as="sourcePoint" />
            <mxPoint x="4660" y="369.57000000000005" as="targetPoint" />
            <mxPoint as="offset" />
          </mxGeometry>
        </mxCell>
        <mxCell id="bhZwOV67Gbov-zILEt_u-181" value="Feedback Details" style="text;html=1;align=center;verticalAlign=middle;resizable=0;points=[];autosize=1;fontSize=14;spacingTop=0;fillOpacity=100;" vertex="1" parent="bhZwOV67Gbov-zILEt_u-349">
          <mxGeometry x="4635" y="340" width="130" height="30" as="geometry" />
        </mxCell>
        <mxCell id="bhZwOV67Gbov-zILEt_u-182" value="" style="endArrow=classic;html=1;rounded=0;startArrow=oval;startFill=0;fontSize=14;labelBackgroundColor=none;fontColor=default;spacingTop=0;fillOpacity=100;" edge="1" parent="bhZwOV67Gbov-zILEt_u-349">
          <mxGeometry x="0.92" y="-64" width="50" height="50" relative="1" as="geometry">
            <mxPoint x="4460" y="519.13" as="sourcePoint" />
            <mxPoint x="4340" y="519.13" as="targetPoint" />
            <mxPoint as="offset" />
          </mxGeometry>
        </mxCell>
        <mxCell id="bhZwOV67Gbov-zILEt_u-183" value="Ride details" style="text;html=1;align=center;verticalAlign=middle;resizable=0;points=[];autosize=1;fontSize=14;spacingTop=0;fillOpacity=100;" vertex="1" parent="bhZwOV67Gbov-zILEt_u-349">
          <mxGeometry x="4365" y="489.54999999999995" width="100" height="30" as="geometry" />
        </mxCell>
        <mxCell id="bhZwOV67Gbov-zILEt_u-187" value="Driver Feedback" style="text;html=1;align=center;verticalAlign=middle;resizable=0;points=[];autosize=1;rotation=-90;fontSize=14;spacingTop=0;fillOpacity=100;" vertex="1" parent="bhZwOV67Gbov-zILEt_u-349">
          <mxGeometry x="4380" y="690" width="130" height="30" as="geometry" />
        </mxCell>
        <mxCell id="bhZwOV67Gbov-zILEt_u-188" value="" style="endArrow=classic;html=1;rounded=0;startArrow=oval;startFill=0;fontSize=14;labelBackgroundColor=none;fontColor=default;spacingTop=0;fillOpacity=100;" edge="1" parent="bhZwOV67Gbov-zILEt_u-349">
          <mxGeometry x="0.92" y="-64" width="50" height="50" relative="1" as="geometry">
            <mxPoint x="4460" y="679.13" as="sourcePoint" />
            <mxPoint x="4460" y="740" as="targetPoint" />
            <mxPoint as="offset" />
          </mxGeometry>
        </mxCell>
        <mxCell id="bhZwOV67Gbov-zILEt_u-140" style="edgeStyle=orthogonalEdgeStyle;orthogonalLoop=1;jettySize=auto;html=1;entryX=0.5;entryY=0;entryDx=0;entryDy=0;rounded=0;fontSize=14;spacingTop=0;fillOpacity=100;" edge="1" parent="bhZwOV67Gbov-zILEt_u-349" source="bhZwOV67Gbov-zILEt_u-121" target="bhZwOV67Gbov-zILEt_u-135">
          <mxGeometry relative="1" as="geometry" />
        </mxCell>
        <mxCell id="bhZwOV67Gbov-zILEt_u-189" style="edgeStyle=orthogonalEdgeStyle;orthogonalLoop=1;jettySize=auto;html=1;entryX=0.5;entryY=1;entryDx=0;entryDy=0;fontSize=14;spacingTop=0;fillOpacity=100;" edge="1" parent="bhZwOV67Gbov-zILEt_u-349" source="bhZwOV67Gbov-zILEt_u-128" target="bhZwOV67Gbov-zILEt_u-128">
          <mxGeometry relative="1" as="geometry" />
        </mxCell>
        <mxCell id="bhZwOV67Gbov-zILEt_u-191" value="" style="endArrow=classic;html=1;rounded=0;startArrow=oval;startFill=0;fontSize=14;labelBackgroundColor=none;fontColor=default;spacingTop=0;fillOpacity=100;" edge="1" parent="bhZwOV67Gbov-zILEt_u-349">
          <mxGeometry x="0.92" y="-64" width="50" height="50" relative="1" as="geometry">
            <mxPoint x="4810" y="519.55" as="sourcePoint" />
            <mxPoint x="4690" y="519.55" as="targetPoint" />
            <mxPoint as="offset" />
          </mxGeometry>
        </mxCell>
        <mxCell id="bhZwOV67Gbov-zILEt_u-193" value="Feedback send&lt;br style=&quot;font-size: 14px;&quot;&gt;success message" style="text;html=1;align=center;verticalAlign=middle;resizable=0;points=[];autosize=1;fontSize=14;spacingTop=0;fillOpacity=100;" vertex="1" parent="bhZwOV67Gbov-zILEt_u-349">
          <mxGeometry x="4695" y="475" width="130" height="50" as="geometry" />
        </mxCell>
        <mxCell id="bhZwOV67Gbov-zILEt_u-194" value="" style="endArrow=classic;html=1;rounded=0;startArrow=oval;startFill=0;fontSize=14;labelBackgroundColor=none;fontColor=default;spacingTop=0;fillOpacity=100;" edge="1" parent="bhZwOV67Gbov-zILEt_u-349">
          <mxGeometry x="0.92" y="-64" width="50" height="50" relative="1" as="geometry">
            <mxPoint x="5170" y="374.35" as="sourcePoint" />
            <mxPoint x="5070" y="374.35" as="targetPoint" />
            <mxPoint as="offset" />
          </mxGeometry>
        </mxCell>
        <mxCell id="bhZwOV67Gbov-zILEt_u-195" value="Outcome Result" style="text;html=1;align=center;verticalAlign=middle;resizable=0;points=[];autosize=1;fontSize=14;spacingTop=0;fillOpacity=100;" vertex="1" parent="bhZwOV67Gbov-zILEt_u-349">
          <mxGeometry x="5065" y="345" width="120" height="30" as="geometry" />
        </mxCell>
        <mxCell id="bhZwOV67Gbov-zILEt_u-196" value="" style="endArrow=classic;html=1;rounded=0;startArrow=oval;startFill=0;fontSize=14;labelBackgroundColor=none;fontColor=default;spacingTop=0;fillOpacity=100;" edge="1" parent="bhZwOV67Gbov-zILEt_u-349">
          <mxGeometry x="0.92" y="-64" width="50" height="50" relative="1" as="geometry">
            <mxPoint x="5080" y="560" as="sourcePoint" />
            <mxPoint x="5080" y="630" as="targetPoint" />
            <mxPoint as="offset" />
          </mxGeometry>
        </mxCell>
        <mxCell id="bhZwOV67Gbov-zILEt_u-198" value="Report Details" style="text;html=1;align=center;verticalAlign=middle;resizable=0;points=[];autosize=1;rotation=-90;fontSize=14;spacingTop=0;fillOpacity=100;" vertex="1" parent="bhZwOV67Gbov-zILEt_u-349">
          <mxGeometry x="5010" y="580" width="110" height="30" as="geometry" />
        </mxCell>
        <mxCell id="bhZwOV67Gbov-zILEt_u-199" value="" style="endArrow=classic;html=1;rounded=0;startArrow=oval;startFill=0;fontSize=14;labelBackgroundColor=none;fontColor=default;spacingTop=0;fillOpacity=100;" edge="1" parent="bhZwOV67Gbov-zILEt_u-349">
          <mxGeometry x="0.92" y="-64" width="50" height="50" relative="1" as="geometry">
            <mxPoint x="5270" y="690" as="sourcePoint" />
            <mxPoint x="5270" y="610" as="targetPoint" />
            <mxPoint as="offset" />
          </mxGeometry>
        </mxCell>
        <mxCell id="bhZwOV67Gbov-zILEt_u-201" value="Result of Report" style="text;html=1;align=center;verticalAlign=middle;resizable=0;points=[];autosize=1;rotation=-90;fontSize=14;spacingTop=0;fillOpacity=100;" vertex="1" parent="bhZwOV67Gbov-zILEt_u-349">
          <mxGeometry x="5190" y="639.59" width="120" height="30" as="geometry" />
        </mxCell>
        <mxCell id="bhZwOV67Gbov-zILEt_u-202" value="" style="endArrow=classic;html=1;rounded=0;startArrow=oval;startFill=0;fontSize=14;labelBackgroundColor=none;fontColor=default;spacingTop=0;fillOpacity=100;" edge="1" parent="bhZwOV67Gbov-zILEt_u-349">
          <mxGeometry x="0.92" y="-64" width="50" height="50" relative="1" as="geometry">
            <mxPoint x="5430" y="694.5899999999999" as="sourcePoint" />
            <mxPoint x="5430" y="614.59" as="targetPoint" />
            <mxPoint as="offset" />
          </mxGeometry>
        </mxCell>
        <mxCell id="bhZwOV67Gbov-zILEt_u-204" value="Outcome reported success&lt;br style=&quot;font-size: 14px;&quot;&gt;message" style="text;html=1;align=center;verticalAlign=middle;resizable=0;points=[];autosize=1;rotation=-90;fontSize=14;spacingTop=0;fillOpacity=100;" vertex="1" parent="bhZwOV67Gbov-zILEt_u-349">
          <mxGeometry x="5310" y="630" width="190" height="50" as="geometry" />
        </mxCell>
        <mxCell id="bhZwOV67Gbov-zILEt_u-209" value="1.0&lt;br style=&quot;font-size: 14px;&quot;&gt;Online Taxi Sharing System" style="rounded=0;whiteSpace=wrap;html=1;labelBackgroundColor=none;fontSize=14;spacingTop=0;fillOpacity=100;" vertex="1" parent="bhZwOV67Gbov-zILEt_u-349">
          <mxGeometry x="3450" width="160" height="80" as="geometry" />
        </mxCell>
        <mxCell id="bhZwOV67Gbov-zILEt_u-139" style="edgeStyle=orthogonalEdgeStyle;orthogonalLoop=1;jettySize=auto;html=1;entryX=0.5;entryY=0;entryDx=0;entryDy=0;rounded=0;fontSize=14;spacingTop=0;fillOpacity=100;" edge="1" parent="bhZwOV67Gbov-zILEt_u-349" source="bhZwOV67Gbov-zILEt_u-121" target="bhZwOV67Gbov-zILEt_u-136">
          <mxGeometry relative="1" as="geometry" />
        </mxCell>
        <mxCell id="bhZwOV67Gbov-zILEt_u-211" value="1.1&lt;br style=&quot;font-size: 14px;&quot;&gt;Maintain account" style="rounded=0;whiteSpace=wrap;html=1;labelBackgroundColor=none;fontSize=14;spacingTop=0;fillOpacity=100;" vertex="1" parent="bhZwOV67Gbov-zILEt_u-349">
          <mxGeometry x="1790" y="330" width="120" height="60" as="geometry" />
        </mxCell>
        <mxCell id="bhZwOV67Gbov-zILEt_u-208" style="edgeStyle=orthogonalEdgeStyle;rounded=0;orthogonalLoop=1;jettySize=auto;html=1;entryX=0.5;entryY=0;entryDx=0;entryDy=0;labelBackgroundColor=none;fontColor=default;fontSize=14;spacingTop=0;fillOpacity=100;" edge="1" source="bhZwOV67Gbov-zILEt_u-209" target="bhZwOV67Gbov-zILEt_u-211" parent="bhZwOV67Gbov-zILEt_u-349">
          <mxGeometry relative="1" as="geometry" />
        </mxCell>
        <mxCell id="bhZwOV67Gbov-zILEt_u-214" value="1.2&lt;br style=&quot;font-size: 14px;&quot;&gt;Share a ride" style="rounded=0;whiteSpace=wrap;html=1;labelBackgroundColor=none;fontSize=14;spacingTop=0;fillOpacity=100;" vertex="1" parent="bhZwOV67Gbov-zILEt_u-349">
          <mxGeometry x="2910" y="340" width="120" height="60" as="geometry" />
        </mxCell>
        <mxCell id="bhZwOV67Gbov-zILEt_u-205" style="edgeStyle=orthogonalEdgeStyle;rounded=0;orthogonalLoop=1;jettySize=auto;html=1;entryX=0.5;entryY=0;entryDx=0;entryDy=0;labelBackgroundColor=none;fontColor=default;fontSize=14;spacingTop=0;fillOpacity=100;" edge="1" source="bhZwOV67Gbov-zILEt_u-209" target="bhZwOV67Gbov-zILEt_u-214" parent="bhZwOV67Gbov-zILEt_u-349">
          <mxGeometry relative="1" as="geometry">
            <mxPoint x="3400" y="150" as="targetPoint" />
          </mxGeometry>
        </mxCell>
        <mxCell id="bhZwOV67Gbov-zILEt_u-219" value="1.3&lt;br style=&quot;font-size: 14px;&quot;&gt;Process Payment" style="rounded=0;whiteSpace=wrap;html=1;labelBackgroundColor=none;fontSize=14;spacingTop=0;fillOpacity=100;" vertex="1" parent="bhZwOV67Gbov-zILEt_u-349">
          <mxGeometry x="3925" y="340" width="121" height="60" as="geometry" />
        </mxCell>
        <mxCell id="bhZwOV67Gbov-zILEt_u-206" style="edgeStyle=orthogonalEdgeStyle;rounded=0;orthogonalLoop=1;jettySize=auto;html=1;entryX=0.5;entryY=0;entryDx=0;entryDy=0;labelBackgroundColor=none;fontColor=default;fontSize=14;spacingTop=0;fillOpacity=100;" edge="1" source="bhZwOV67Gbov-zILEt_u-209" target="bhZwOV67Gbov-zILEt_u-219" parent="bhZwOV67Gbov-zILEt_u-349">
          <mxGeometry relative="1" as="geometry" />
        </mxCell>
        <mxCell id="bhZwOV67Gbov-zILEt_u-222" value="1.4&lt;br style=&quot;font-size: 14px;&quot;&gt;Manage feedback" style="rounded=0;whiteSpace=wrap;html=1;labelBackgroundColor=none;fontSize=14;spacingTop=0;fillOpacity=100;" vertex="1" parent="bhZwOV67Gbov-zILEt_u-349">
          <mxGeometry x="4850" y="350" width="120" height="60" as="geometry" />
        </mxCell>
        <mxCell id="bhZwOV67Gbov-zILEt_u-207" style="edgeStyle=orthogonalEdgeStyle;rounded=0;orthogonalLoop=1;jettySize=auto;html=1;entryX=0.5;entryY=0;entryDx=0;entryDy=0;labelBackgroundColor=none;fontColor=default;fontSize=14;spacingTop=0;fillOpacity=100;" edge="1" source="bhZwOV67Gbov-zILEt_u-209" target="bhZwOV67Gbov-zILEt_u-222" parent="bhZwOV67Gbov-zILEt_u-349">
          <mxGeometry relative="1" as="geometry" />
        </mxCell>
        <mxCell id="bhZwOV67Gbov-zILEt_u-230" value="1.1.2&lt;br style=&quot;font-size: 14px;&quot;&gt;Account Modification" style="rounded=0;whiteSpace=wrap;html=1;labelBackgroundColor=none;fontSize=14;spacingTop=0;fillOpacity=100;" vertex="1" parent="bhZwOV67Gbov-zILEt_u-349">
          <mxGeometry x="1790" y="590" width="120" height="60" as="geometry" />
        </mxCell>
        <mxCell id="bhZwOV67Gbov-zILEt_u-231" value="" style="endArrow=classic;html=1;rounded=0;entryX=0.5;entryY=0;entryDx=0;entryDy=0;exitX=0.5;exitY=1;exitDx=0;exitDy=0;labelBackgroundColor=none;fontColor=default;fontSize=14;spacingTop=0;fillOpacity=100;" edge="1" source="bhZwOV67Gbov-zILEt_u-211" target="bhZwOV67Gbov-zILEt_u-230" parent="bhZwOV67Gbov-zILEt_u-349">
          <mxGeometry width="50" height="50" relative="1" as="geometry">
            <mxPoint x="2350" y="510" as="sourcePoint" />
            <mxPoint x="2400" y="460" as="targetPoint" />
          </mxGeometry>
        </mxCell>
        <mxCell id="bhZwOV67Gbov-zILEt_u-249" value="1.2.1&lt;br style=&quot;font-size: 14px;&quot;&gt;Ride request" style="rounded=0;whiteSpace=wrap;html=1;labelBackgroundColor=none;fontSize=14;spacingTop=0;fillOpacity=100;" vertex="1" parent="bhZwOV67Gbov-zILEt_u-349">
          <mxGeometry x="2610" y="520" width="120" height="60" as="geometry" />
        </mxCell>
        <mxCell id="bhZwOV67Gbov-zILEt_u-212" style="edgeStyle=orthogonalEdgeStyle;rounded=0;orthogonalLoop=1;jettySize=auto;html=1;entryX=0.5;entryY=0;entryDx=0;entryDy=0;fontSize=14;spacingTop=0;fillOpacity=100;" edge="1" source="bhZwOV67Gbov-zILEt_u-214" target="bhZwOV67Gbov-zILEt_u-249" parent="bhZwOV67Gbov-zILEt_u-349">
          <mxGeometry relative="1" as="geometry" />
        </mxCell>
        <mxCell id="bhZwOV67Gbov-zILEt_u-252" value="1.2.2&lt;br style=&quot;font-size: 14px;&quot;&gt;Ride Cancellation&lt;br style=&quot;font-size: 14px;&quot;&gt;Request" style="rounded=0;whiteSpace=wrap;html=1;labelBackgroundColor=none;fontSize=14;spacingTop=0;fillOpacity=100;" vertex="1" parent="bhZwOV67Gbov-zILEt_u-349">
          <mxGeometry x="3220" y="520" width="120" height="60" as="geometry" />
        </mxCell>
        <mxCell id="bhZwOV67Gbov-zILEt_u-213" style="edgeStyle=orthogonalEdgeStyle;rounded=0;orthogonalLoop=1;jettySize=auto;html=1;entryX=0.5;entryY=0;entryDx=0;entryDy=0;fontSize=14;spacingTop=0;fillOpacity=100;" edge="1" source="bhZwOV67Gbov-zILEt_u-214" target="bhZwOV67Gbov-zILEt_u-252" parent="bhZwOV67Gbov-zILEt_u-349">
          <mxGeometry relative="1" as="geometry" />
        </mxCell>
        <mxCell id="bhZwOV67Gbov-zILEt_u-269" value="1.1.2.1&lt;br style=&quot;font-size: 14px;&quot;&gt;Autheticate User" style="rounded=0;whiteSpace=wrap;html=1;labelBackgroundColor=none;fontSize=14;spacingTop=0;fillOpacity=100;" vertex="1" parent="bhZwOV67Gbov-zILEt_u-349">
          <mxGeometry x="1410" y="780" width="120" height="60" as="geometry" />
        </mxCell>
        <mxCell id="bhZwOV67Gbov-zILEt_u-226" style="edgeStyle=orthogonalEdgeStyle;rounded=0;orthogonalLoop=1;jettySize=auto;html=1;entryX=0.5;entryY=0;entryDx=0;entryDy=0;fontSize=14;spacingTop=0;fillOpacity=100;" edge="1" source="bhZwOV67Gbov-zILEt_u-230" target="bhZwOV67Gbov-zILEt_u-269" parent="bhZwOV67Gbov-zILEt_u-349">
          <mxGeometry relative="1" as="geometry" />
        </mxCell>
        <mxCell id="bhZwOV67Gbov-zILEt_u-270" value="1.1.2.2&lt;br style=&quot;font-size: 14px;&quot;&gt;Retrieve Account Information" style="rounded=0;whiteSpace=wrap;html=1;labelBackgroundColor=none;fontSize=14;spacingTop=0;fillOpacity=100;" vertex="1" parent="bhZwOV67Gbov-zILEt_u-349">
          <mxGeometry x="1600" y="780" width="120" height="60" as="geometry" />
        </mxCell>
        <mxCell id="bhZwOV67Gbov-zILEt_u-227" style="edgeStyle=orthogonalEdgeStyle;rounded=0;orthogonalLoop=1;jettySize=auto;html=1;entryX=0.5;entryY=0;entryDx=0;entryDy=0;fontSize=14;spacingTop=0;fillOpacity=100;" edge="1" source="bhZwOV67Gbov-zILEt_u-230" target="bhZwOV67Gbov-zILEt_u-270" parent="bhZwOV67Gbov-zILEt_u-349">
          <mxGeometry relative="1" as="geometry">
            <mxPoint x="1610" y="760" as="targetPoint" />
            <Array as="points">
              <mxPoint x="1850" y="690" />
              <mxPoint x="1660" y="690" />
            </Array>
          </mxGeometry>
        </mxCell>
        <mxCell id="bhZwOV67Gbov-zILEt_u-271" value="1.1.2.4&lt;br style=&quot;font-size: 14px;&quot;&gt;Send Modification Confirmation" style="rounded=0;whiteSpace=wrap;html=1;labelBackgroundColor=none;fontSize=14;spacingTop=0;fillOpacity=100;" vertex="1" parent="bhZwOV67Gbov-zILEt_u-349">
          <mxGeometry x="2150" y="780" width="120" height="60" as="geometry" />
        </mxCell>
        <mxCell id="bhZwOV67Gbov-zILEt_u-229" style="edgeStyle=orthogonalEdgeStyle;rounded=0;orthogonalLoop=1;jettySize=auto;html=1;entryX=0.5;entryY=0;entryDx=0;entryDy=0;fontSize=14;spacingTop=0;fillOpacity=100;" edge="1" source="bhZwOV67Gbov-zILEt_u-230" target="bhZwOV67Gbov-zILEt_u-271" parent="bhZwOV67Gbov-zILEt_u-349">
          <mxGeometry relative="1" as="geometry" />
        </mxCell>
        <mxCell id="bhZwOV67Gbov-zILEt_u-272" value="1.1.2.3&lt;br style=&quot;font-size: 14px;&quot;&gt;Update Account Information" style="rounded=0;whiteSpace=wrap;html=1;labelBackgroundColor=none;fontSize=14;spacingTop=0;fillOpacity=100;" vertex="1" parent="bhZwOV67Gbov-zILEt_u-349">
          <mxGeometry x="1950" y="780" width="120" height="60" as="geometry" />
        </mxCell>
        <mxCell id="bhZwOV67Gbov-zILEt_u-228" style="edgeStyle=orthogonalEdgeStyle;rounded=0;orthogonalLoop=1;jettySize=auto;html=1;entryX=0.5;entryY=0;entryDx=0;entryDy=0;fontSize=14;spacingTop=0;fillOpacity=100;" edge="1" source="bhZwOV67Gbov-zILEt_u-230" target="bhZwOV67Gbov-zILEt_u-272" parent="bhZwOV67Gbov-zILEt_u-349">
          <mxGeometry relative="1" as="geometry">
            <Array as="points">
              <mxPoint x="1850" y="690" />
              <mxPoint x="2010" y="690" />
            </Array>
          </mxGeometry>
        </mxCell>
        <mxCell id="bhZwOV67Gbov-zILEt_u-273" value="" style="endArrow=classic;html=1;rounded=0;startArrow=oval;startFill=1;fontSize=14;labelBackgroundColor=none;fontColor=default;spacingTop=0;fillOpacity=100;" edge="1" parent="bhZwOV67Gbov-zILEt_u-349">
          <mxGeometry x="0.92" y="-64" width="50" height="50" relative="1" as="geometry">
            <mxPoint x="1830" y="540" as="sourcePoint" />
            <mxPoint x="1830" y="440" as="targetPoint" />
            <mxPoint as="offset" />
          </mxGeometry>
        </mxCell>
        <mxCell id="bhZwOV67Gbov-zILEt_u-274" value="" style="endArrow=classic;html=1;rounded=0;startArrow=oval;startFill=0;fontSize=14;labelBackgroundColor=none;fontColor=default;spacingTop=0;fillOpacity=100;" edge="1" parent="bhZwOV67Gbov-zILEt_u-349">
          <mxGeometry x="0.92" y="-64" width="50" height="50" relative="1" as="geometry">
            <mxPoint x="1680" y="610" as="sourcePoint" />
            <mxPoint x="1560" y="610" as="targetPoint" />
            <mxPoint as="offset" />
          </mxGeometry>
        </mxCell>
        <mxCell id="bhZwOV67Gbov-zILEt_u-275" value="" style="endArrow=classic;html=1;rounded=0;startArrow=oval;startFill=1;fontSize=14;labelBackgroundColor=none;fontColor=default;spacingTop=0;fillOpacity=100;" edge="1" parent="bhZwOV67Gbov-zILEt_u-349">
          <mxGeometry x="0.92" y="-64" width="50" height="50" relative="1" as="geometry">
            <mxPoint x="2110" y="610" as="sourcePoint" />
            <mxPoint x="1970" y="610" as="targetPoint" />
            <mxPoint as="offset" />
          </mxGeometry>
        </mxCell>
        <mxCell id="bhZwOV67Gbov-zILEt_u-276" value="Modification Confirmation Message" style="text;html=1;align=center;verticalAlign=middle;resizable=0;points=[];autosize=1;rotation=0;fontSize=14;labelBackgroundColor=none;rounded=0;spacingTop=0;fillOpacity=100;" vertex="1" parent="bhZwOV67Gbov-zILEt_u-349">
          <mxGeometry x="1930" y="580" width="240" height="30" as="geometry" />
        </mxCell>
        <mxCell id="bhZwOV67Gbov-zILEt_u-277" value="" style="endArrow=classic;html=1;rounded=0;startArrow=oval;startFill=0;fontSize=14;labelBackgroundColor=none;fontColor=default;spacingTop=0;fillOpacity=100;" edge="1" parent="bhZwOV67Gbov-zILEt_u-349">
          <mxGeometry x="0.92" y="-64" width="50" height="50" relative="1" as="geometry">
            <mxPoint x="1650" y="700" as="sourcePoint" />
            <mxPoint x="1650" y="760" as="targetPoint" />
            <mxPoint as="offset" />
          </mxGeometry>
        </mxCell>
        <mxCell id="bhZwOV67Gbov-zILEt_u-278" value="" style="endArrow=classic;html=1;rounded=0;startArrow=oval;startFill=1;fontSize=14;labelBackgroundColor=none;fontColor=default;spacingTop=0;fillOpacity=100;" edge="1" parent="bhZwOV67Gbov-zILEt_u-349">
          <mxGeometry x="0.92" y="-64" width="50" height="50" relative="1" as="geometry">
            <mxPoint x="2020" y="750" as="sourcePoint" />
            <mxPoint x="2020" y="700" as="targetPoint" />
            <mxPoint as="offset" />
          </mxGeometry>
        </mxCell>
        <mxCell id="bhZwOV67Gbov-zILEt_u-279" value="Updated Account&lt;br style=&quot;font-size: 14px;&quot;&gt;Information" style="text;html=1;align=center;verticalAlign=middle;resizable=0;points=[];autosize=1;rotation=90;fontSize=14;labelBackgroundColor=none;rounded=0;spacingTop=0;fillOpacity=100;" vertex="1" parent="bhZwOV67Gbov-zILEt_u-349">
          <mxGeometry x="1980" y="700" width="130" height="50" as="geometry" />
        </mxCell>
        <mxCell id="bhZwOV67Gbov-zILEt_u-280" value="1.2.1.1&lt;br style=&quot;font-size: 14px;&quot;&gt;Authenticate User" style="rounded=0;whiteSpace=wrap;html=1;labelBackgroundColor=none;fontSize=14;spacingTop=0;fillOpacity=100;" vertex="1" parent="bhZwOV67Gbov-zILEt_u-349">
          <mxGeometry x="2350" y="770" width="120" height="60" as="geometry" />
        </mxCell>
        <mxCell id="bhZwOV67Gbov-zILEt_u-245" style="edgeStyle=orthogonalEdgeStyle;rounded=0;orthogonalLoop=1;jettySize=auto;html=1;entryX=0.5;entryY=0;entryDx=0;entryDy=0;fontSize=14;spacingTop=0;fillOpacity=100;" edge="1" source="bhZwOV67Gbov-zILEt_u-249" target="bhZwOV67Gbov-zILEt_u-280" parent="bhZwOV67Gbov-zILEt_u-349">
          <mxGeometry relative="1" as="geometry" />
        </mxCell>
        <mxCell id="bhZwOV67Gbov-zILEt_u-281" value="1.2.1.3&lt;br style=&quot;font-size: 14px;&quot;&gt;Select Available Drivers" style="rounded=0;whiteSpace=wrap;html=1;labelBackgroundColor=none;fontSize=14;spacingTop=0;fillOpacity=100;" vertex="1" parent="bhZwOV67Gbov-zILEt_u-349">
          <mxGeometry x="2710" y="770" width="120" height="60" as="geometry" />
        </mxCell>
        <mxCell id="bhZwOV67Gbov-zILEt_u-247" style="edgeStyle=orthogonalEdgeStyle;rounded=0;orthogonalLoop=1;jettySize=auto;html=1;entryX=0.5;entryY=0;entryDx=0;entryDy=0;fontSize=14;spacingTop=0;fillOpacity=100;" edge="1" source="bhZwOV67Gbov-zILEt_u-249" target="bhZwOV67Gbov-zILEt_u-281" parent="bhZwOV67Gbov-zILEt_u-349">
          <mxGeometry relative="1" as="geometry" />
        </mxCell>
        <mxCell id="bhZwOV67Gbov-zILEt_u-282" value="1.2.1.2&lt;br style=&quot;font-size: 14px;&quot;&gt;Collect Ride details" style="rounded=0;whiteSpace=wrap;html=1;labelBackgroundColor=none;fontSize=14;spacingTop=0;fillOpacity=100;" vertex="1" parent="bhZwOV67Gbov-zILEt_u-349">
          <mxGeometry x="2500" y="770" width="120" height="60" as="geometry" />
        </mxCell>
        <mxCell id="bhZwOV67Gbov-zILEt_u-246" style="edgeStyle=orthogonalEdgeStyle;rounded=0;orthogonalLoop=1;jettySize=auto;html=1;entryX=0.5;entryY=0;entryDx=0;entryDy=0;fontSize=14;spacingTop=0;fillOpacity=100;" edge="1" source="bhZwOV67Gbov-zILEt_u-249" target="bhZwOV67Gbov-zILEt_u-282" parent="bhZwOV67Gbov-zILEt_u-349">
          <mxGeometry relative="1" as="geometry" />
        </mxCell>
        <mxCell id="bhZwOV67Gbov-zILEt_u-283" value="1.2.1.4&lt;br style=&quot;border-color: var(--border-color); font-size: 14px;&quot;&gt;Send Ride Request&lt;br style=&quot;border-color: var(--border-color); font-size: 14px;&quot;&gt;Notification" style="rounded=0;whiteSpace=wrap;html=1;labelBackgroundColor=none;fontSize=14;spacingTop=0;fillOpacity=100;" vertex="1" parent="bhZwOV67Gbov-zILEt_u-349">
          <mxGeometry x="2850" y="770" width="120" height="60" as="geometry" />
        </mxCell>
        <mxCell id="bhZwOV67Gbov-zILEt_u-248" style="edgeStyle=orthogonalEdgeStyle;rounded=0;orthogonalLoop=1;jettySize=auto;html=1;entryX=0.5;entryY=0;entryDx=0;entryDy=0;fontSize=14;spacingTop=0;fillOpacity=100;" edge="1" source="bhZwOV67Gbov-zILEt_u-249" target="bhZwOV67Gbov-zILEt_u-283" parent="bhZwOV67Gbov-zILEt_u-349">
          <mxGeometry relative="1" as="geometry" />
        </mxCell>
        <mxCell id="bhZwOV67Gbov-zILEt_u-284" value="1.2.2.1&lt;br style=&quot;font-size: 14px;&quot;&gt;Retrieve Ride Details" style="rounded=0;whiteSpace=wrap;html=1;labelBackgroundColor=none;fontSize=14;spacingTop=0;fillOpacity=100;" vertex="1" parent="bhZwOV67Gbov-zILEt_u-349">
          <mxGeometry x="3080" y="770" width="120" height="60" as="geometry" />
        </mxCell>
        <mxCell id="bhZwOV67Gbov-zILEt_u-250" style="edgeStyle=orthogonalEdgeStyle;rounded=0;orthogonalLoop=1;jettySize=auto;html=1;entryX=0.5;entryY=0;entryDx=0;entryDy=0;fontSize=14;spacingTop=0;fillOpacity=100;" edge="1" source="bhZwOV67Gbov-zILEt_u-252" target="bhZwOV67Gbov-zILEt_u-284" parent="bhZwOV67Gbov-zILEt_u-349">
          <mxGeometry relative="1" as="geometry">
            <mxPoint x="3150" y="890" as="targetPoint" />
          </mxGeometry>
        </mxCell>
        <mxCell id="bhZwOV67Gbov-zILEt_u-285" value="1.2.2.2&lt;br style=&quot;font-size: 14px;&quot;&gt;Request Ride Cancellation" style="rounded=0;whiteSpace=wrap;html=1;labelBackgroundColor=none;fontSize=14;spacingTop=0;fillOpacity=100;" vertex="1" parent="bhZwOV67Gbov-zILEt_u-349">
          <mxGeometry x="3320" y="770" width="120" height="60" as="geometry" />
        </mxCell>
        <mxCell id="bhZwOV67Gbov-zILEt_u-251" style="edgeStyle=orthogonalEdgeStyle;rounded=0;orthogonalLoop=1;jettySize=auto;html=1;entryX=0.5;entryY=0;entryDx=0;entryDy=0;exitX=1;exitY=0.5;exitDx=0;exitDy=0;fontSize=14;spacingTop=0;fillOpacity=100;" edge="1" source="bhZwOV67Gbov-zILEt_u-252" target="bhZwOV67Gbov-zILEt_u-285" parent="bhZwOV67Gbov-zILEt_u-349">
          <mxGeometry relative="1" as="geometry">
            <mxPoint x="3380" y="890" as="targetPoint" />
          </mxGeometry>
        </mxCell>
        <mxCell id="bhZwOV67Gbov-zILEt_u-286" value="1.3.4&lt;br style=&quot;font-size: 14px;&quot;&gt;Send Payment Confirmation" style="rounded=0;whiteSpace=wrap;html=1;labelBackgroundColor=none;fontSize=14;spacingTop=0;fillOpacity=100;" vertex="1" parent="bhZwOV67Gbov-zILEt_u-349">
          <mxGeometry x="4150" y="510" width="120" height="60" as="geometry" />
        </mxCell>
        <mxCell id="bhZwOV67Gbov-zILEt_u-218" style="edgeStyle=orthogonalEdgeStyle;rounded=0;orthogonalLoop=1;jettySize=auto;html=1;entryX=0.5;entryY=0;entryDx=0;entryDy=0;fontSize=14;spacingTop=0;fillOpacity=100;" edge="1" source="bhZwOV67Gbov-zILEt_u-219" target="bhZwOV67Gbov-zILEt_u-286" parent="bhZwOV67Gbov-zILEt_u-349">
          <mxGeometry relative="1" as="geometry" />
        </mxCell>
        <mxCell id="bhZwOV67Gbov-zILEt_u-287" value="1.3.1&lt;br style=&quot;font-size: 14px;&quot;&gt;Collect Payment Details" style="rounded=0;whiteSpace=wrap;html=1;labelBackgroundColor=none;fontSize=14;spacingTop=0;fillOpacity=100;" vertex="1" parent="bhZwOV67Gbov-zILEt_u-349">
          <mxGeometry x="3700" y="510" width="120" height="60" as="geometry" />
        </mxCell>
        <mxCell id="bhZwOV67Gbov-zILEt_u-215" style="edgeStyle=orthogonalEdgeStyle;rounded=0;orthogonalLoop=1;jettySize=auto;html=1;entryX=0.5;entryY=0;entryDx=0;entryDy=0;fontSize=14;spacingTop=0;fillOpacity=100;" edge="1" source="bhZwOV67Gbov-zILEt_u-219" target="bhZwOV67Gbov-zILEt_u-287" parent="bhZwOV67Gbov-zILEt_u-349">
          <mxGeometry relative="1" as="geometry" />
        </mxCell>
        <mxCell id="bhZwOV67Gbov-zILEt_u-288" value="1.3.3&lt;br style=&quot;font-size: 14px;&quot;&gt;Process Payment Transaction" style="rounded=0;whiteSpace=wrap;html=1;labelBackgroundColor=none;fontSize=14;spacingTop=0;fillOpacity=100;" vertex="1" parent="bhZwOV67Gbov-zILEt_u-349">
          <mxGeometry x="4000" y="510" width="120" height="60" as="geometry" />
        </mxCell>
        <mxCell id="bhZwOV67Gbov-zILEt_u-217" style="edgeStyle=orthogonalEdgeStyle;rounded=0;orthogonalLoop=1;jettySize=auto;html=1;entryX=0.5;entryY=0;entryDx=0;entryDy=0;fontSize=14;spacingTop=0;fillOpacity=100;" edge="1" source="bhZwOV67Gbov-zILEt_u-219" target="bhZwOV67Gbov-zILEt_u-288" parent="bhZwOV67Gbov-zILEt_u-349">
          <mxGeometry relative="1" as="geometry" />
        </mxCell>
        <mxCell id="bhZwOV67Gbov-zILEt_u-289" value="1.3.2&lt;br style=&quot;font-size: 14px;&quot;&gt;Validate Payment Data" style="rounded=0;whiteSpace=wrap;html=1;labelBackgroundColor=none;fontSize=14;spacingTop=0;fillOpacity=100;" vertex="1" parent="bhZwOV67Gbov-zILEt_u-349">
          <mxGeometry x="3850" y="510" width="120" height="60" as="geometry" />
        </mxCell>
        <mxCell id="bhZwOV67Gbov-zILEt_u-293" value="1.4.2&lt;br style=&quot;font-size: 14px;&quot;&gt;Report Outcome" style="rounded=0;whiteSpace=wrap;html=1;labelBackgroundColor=none;fontSize=14;spacingTop=0;fillOpacity=100;" vertex="1" parent="bhZwOV67Gbov-zILEt_u-349">
          <mxGeometry x="5220" y="500" width="120" height="60" as="geometry" />
        </mxCell>
        <mxCell id="bhZwOV67Gbov-zILEt_u-216" style="edgeStyle=orthogonalEdgeStyle;rounded=0;orthogonalLoop=1;jettySize=auto;html=1;entryX=0.5;entryY=0;entryDx=0;entryDy=0;fontSize=14;spacingTop=0;fillOpacity=100;" edge="1" source="bhZwOV67Gbov-zILEt_u-219" target="bhZwOV67Gbov-zILEt_u-289" parent="bhZwOV67Gbov-zILEt_u-349">
          <mxGeometry relative="1" as="geometry" />
        </mxCell>
        <mxCell id="bhZwOV67Gbov-zILEt_u-221" style="edgeStyle=orthogonalEdgeStyle;rounded=0;orthogonalLoop=1;jettySize=auto;html=1;entryX=0.5;entryY=0;entryDx=0;entryDy=0;exitX=1;exitY=0.5;exitDx=0;exitDy=0;fontSize=14;spacingTop=0;fillOpacity=100;" edge="1" source="bhZwOV67Gbov-zILEt_u-222" target="bhZwOV67Gbov-zILEt_u-293" parent="bhZwOV67Gbov-zILEt_u-349">
          <mxGeometry relative="1" as="geometry" />
        </mxCell>
        <mxCell id="bhZwOV67Gbov-zILEt_u-298" value="1.4.1&lt;br style=&quot;font-size: 14px;&quot;&gt;Feedback Submission" style="rounded=0;whiteSpace=wrap;html=1;labelBackgroundColor=none;fontSize=14;spacingTop=0;fillOpacity=100;" vertex="1" parent="bhZwOV67Gbov-zILEt_u-349">
          <mxGeometry x="4520" y="500" width="120" height="60" as="geometry" />
        </mxCell>
        <mxCell id="bhZwOV67Gbov-zILEt_u-220" style="edgeStyle=orthogonalEdgeStyle;rounded=0;orthogonalLoop=1;jettySize=auto;html=1;entryX=0.5;entryY=0;entryDx=0;entryDy=0;fontSize=14;spacingTop=0;fillOpacity=100;" edge="1" source="bhZwOV67Gbov-zILEt_u-222" target="bhZwOV67Gbov-zILEt_u-298" parent="bhZwOV67Gbov-zILEt_u-349">
          <mxGeometry relative="1" as="geometry" />
        </mxCell>
        <mxCell id="bhZwOV67Gbov-zILEt_u-299" value="1.4.1.1&lt;br style=&quot;font-size: 14px;&quot;&gt;Retrieve Ride Details" style="rounded=0;whiteSpace=wrap;html=1;labelBackgroundColor=none;fontSize=14;spacingTop=0;fillOpacity=100;" vertex="1" parent="bhZwOV67Gbov-zILEt_u-349">
          <mxGeometry x="4245" y="760" width="120" height="60" as="geometry" />
        </mxCell>
        <mxCell id="bhZwOV67Gbov-zILEt_u-294" style="edgeStyle=orthogonalEdgeStyle;orthogonalLoop=1;jettySize=auto;html=1;entryX=0.5;entryY=0;entryDx=0;entryDy=0;rounded=0;fontSize=14;spacingTop=0;fillOpacity=100;" edge="1" source="bhZwOV67Gbov-zILEt_u-298" target="bhZwOV67Gbov-zILEt_u-299" parent="bhZwOV67Gbov-zILEt_u-349">
          <mxGeometry relative="1" as="geometry" />
        </mxCell>
        <mxCell id="bhZwOV67Gbov-zILEt_u-300" value="1.4.1.2&lt;br style=&quot;font-size: 14px;&quot;&gt;Collect Driver Feedback" style="rounded=0;whiteSpace=wrap;html=1;labelBackgroundColor=none;fontSize=14;spacingTop=0;fillOpacity=100;" vertex="1" parent="bhZwOV67Gbov-zILEt_u-349">
          <mxGeometry x="4415" y="760" width="120" height="60" as="geometry" />
        </mxCell>
        <mxCell id="bhZwOV67Gbov-zILEt_u-295" style="edgeStyle=orthogonalEdgeStyle;orthogonalLoop=1;jettySize=auto;html=1;entryX=0.5;entryY=0;entryDx=0;entryDy=0;rounded=0;fontSize=14;spacingTop=0;fillOpacity=100;" edge="1" source="bhZwOV67Gbov-zILEt_u-298" target="bhZwOV67Gbov-zILEt_u-300" parent="bhZwOV67Gbov-zILEt_u-349">
          <mxGeometry relative="1" as="geometry" />
        </mxCell>
        <mxCell id="bhZwOV67Gbov-zILEt_u-301" value="1.4.1.4&lt;br style=&quot;font-size: 14px;&quot;&gt;Send Feedback&lt;br style=&quot;font-size: 14px;&quot;&gt;Confirmation" style="rounded=0;whiteSpace=wrap;html=1;labelBackgroundColor=none;fontSize=14;spacingTop=0;fillOpacity=100;" vertex="1" parent="bhZwOV67Gbov-zILEt_u-349">
          <mxGeometry x="4795" y="760" width="120" height="60" as="geometry" />
        </mxCell>
        <mxCell id="bhZwOV67Gbov-zILEt_u-297" style="edgeStyle=orthogonalEdgeStyle;orthogonalLoop=1;jettySize=auto;html=1;entryX=0.5;entryY=0;entryDx=0;entryDy=0;rounded=0;fontSize=14;spacingTop=0;fillOpacity=100;" edge="1" source="bhZwOV67Gbov-zILEt_u-298" target="bhZwOV67Gbov-zILEt_u-301" parent="bhZwOV67Gbov-zILEt_u-349">
          <mxGeometry relative="1" as="geometry" />
        </mxCell>
        <mxCell id="bhZwOV67Gbov-zILEt_u-302" value="1.4.1.3&lt;br style=&quot;font-size: 14px;&quot;&gt;Store Feedback Data" style="rounded=0;whiteSpace=wrap;html=1;labelBackgroundColor=none;fontSize=14;spacingTop=0;fillOpacity=100;" vertex="1" parent="bhZwOV67Gbov-zILEt_u-349">
          <mxGeometry x="4595" y="760" width="120" height="60" as="geometry" />
        </mxCell>
        <mxCell id="bhZwOV67Gbov-zILEt_u-303" value="1.4.2.1&lt;br style=&quot;font-size: 14px;&quot;&gt;Retrieve Report Details" style="rounded=0;whiteSpace=wrap;html=1;labelBackgroundColor=none;fontSize=14;spacingTop=0;fillOpacity=100;" vertex="1" parent="bhZwOV67Gbov-zILEt_u-349">
          <mxGeometry x="5050" y="760" width="120" height="60" as="geometry" />
        </mxCell>
        <mxCell id="bhZwOV67Gbov-zILEt_u-304" value="1.4.2.3&lt;br style=&quot;font-size: 14px;&quot;&gt;Notify User of Outcome" style="rounded=0;whiteSpace=wrap;html=1;labelBackgroundColor=none;fontSize=14;spacingTop=0;fillOpacity=100;" vertex="1" parent="bhZwOV67Gbov-zILEt_u-349">
          <mxGeometry x="5380" y="760" width="120" height="60" as="geometry" />
        </mxCell>
        <mxCell id="bhZwOV67Gbov-zILEt_u-305" value="1.4.2.2&lt;br style=&quot;font-size: 14px;&quot;&gt;Evaluate Reported Incident" style="rounded=0;whiteSpace=wrap;html=1;labelBackgroundColor=none;fontSize=14;spacingTop=0;fillOpacity=100;" vertex="1" parent="bhZwOV67Gbov-zILEt_u-349">
          <mxGeometry x="5220" y="760" width="120" height="60" as="geometry" />
        </mxCell>
        <mxCell id="bhZwOV67Gbov-zILEt_u-306" value="" style="endArrow=classic;html=1;rounded=0;startArrow=oval;startFill=0;fontSize=14;labelBackgroundColor=none;fontColor=default;spacingTop=0;fillOpacity=100;" edge="1" parent="bhZwOV67Gbov-zILEt_u-349">
          <mxGeometry x="0.92" y="-64" width="50" height="50" relative="1" as="geometry">
            <mxPoint x="2850" y="359.58000000000004" as="sourcePoint" />
            <mxPoint x="2730" y="359.58000000000004" as="targetPoint" />
            <mxPoint as="offset" />
          </mxGeometry>
        </mxCell>
        <mxCell id="bhZwOV67Gbov-zILEt_u-307" value="Ride details" style="text;html=1;align=center;verticalAlign=middle;resizable=0;points=[];autosize=1;fontSize=14;spacingTop=0;fillOpacity=100;" vertex="1" parent="bhZwOV67Gbov-zILEt_u-349">
          <mxGeometry x="2755" y="330" width="100" height="30" as="geometry" />
        </mxCell>
        <mxCell id="bhZwOV67Gbov-zILEt_u-308" value="Ride details" style="text;html=1;align=center;verticalAlign=middle;resizable=0;points=[];autosize=1;fontSize=14;spacingTop=0;fillOpacity=100;" vertex="1" parent="bhZwOV67Gbov-zILEt_u-349">
          <mxGeometry x="3105" y="330" width="100" height="30" as="geometry" />
        </mxCell>
        <mxCell id="bhZwOV67Gbov-zILEt_u-309" value="" style="endArrow=classic;html=1;rounded=0;startArrow=oval;startFill=0;fontSize=14;labelBackgroundColor=none;fontColor=default;spacingTop=0;fillOpacity=100;" edge="1" parent="bhZwOV67Gbov-zILEt_u-349">
          <mxGeometry x="0.92" y="-64" width="50" height="50" relative="1" as="geometry">
            <mxPoint x="3090" y="360" as="sourcePoint" />
            <mxPoint x="3210" y="360" as="targetPoint" />
            <mxPoint as="offset" />
          </mxGeometry>
        </mxCell>
        <mxCell id="bhZwOV67Gbov-zILEt_u-310" value="" style="endArrow=classic;html=1;rounded=0;startArrow=oval;startFill=0;fontSize=14;labelBackgroundColor=none;fontColor=default;spacingTop=0;fillOpacity=100;" edge="1" parent="bhZwOV67Gbov-zILEt_u-349">
          <mxGeometry x="0.92" y="-64" width="50" height="50" relative="1" as="geometry">
            <mxPoint x="2560" y="544.58" as="sourcePoint" />
            <mxPoint x="2440" y="544.58" as="targetPoint" />
            <mxPoint as="offset" />
          </mxGeometry>
        </mxCell>
        <mxCell id="bhZwOV67Gbov-zILEt_u-311" value="Authoritiy of User Information" style="text;html=1;align=center;verticalAlign=middle;resizable=0;points=[];autosize=1;rotation=0;fontSize=14;labelBackgroundColor=none;rounded=0;spacingTop=0;fillOpacity=100;" vertex="1" parent="bhZwOV67Gbov-zILEt_u-349">
          <mxGeometry x="2405" y="514.58" width="200" height="30" as="geometry" />
        </mxCell>
        <mxCell id="bhZwOV67Gbov-zILEt_u-312" value="" style="endArrow=classic;html=1;rounded=0;startArrow=oval;startFill=0;fontSize=14;labelBackgroundColor=none;fontColor=default;spacingTop=0;fillOpacity=100;" edge="1" parent="bhZwOV67Gbov-zILEt_u-349">
          <mxGeometry x="0.92" y="-64" width="50" height="50" relative="1" as="geometry">
            <mxPoint x="2590" y="670" as="sourcePoint" />
            <mxPoint x="2540" y="670" as="targetPoint" />
            <mxPoint as="offset" />
          </mxGeometry>
        </mxCell>
        <mxCell id="bhZwOV67Gbov-zILEt_u-313" value="Ride details" style="text;html=1;align=center;verticalAlign=middle;resizable=0;points=[];autosize=1;fontSize=14;spacingTop=0;fillOpacity=100;" vertex="1" parent="bhZwOV67Gbov-zILEt_u-349">
          <mxGeometry x="2515" y="640" width="100" height="30" as="geometry" />
        </mxCell>
        <mxCell id="bhZwOV67Gbov-zILEt_u-314" value="" style="endArrow=classic;html=1;rounded=0;startArrow=oval;startFill=1;fontSize=14;labelBackgroundColor=none;fontColor=default;exitX=0.5;exitY=0.997;exitDx=0;exitDy=0;exitPerimeter=0;spacingTop=0;fillOpacity=100;" edge="1" source="bhZwOV67Gbov-zILEt_u-315" parent="bhZwOV67Gbov-zILEt_u-349">
          <mxGeometry x="0.92" y="-64" width="50" height="50" relative="1" as="geometry">
            <mxPoint x="2810" y="670" as="sourcePoint" />
            <mxPoint x="2680" y="669.1700000000001" as="targetPoint" />
            <mxPoint as="offset" />
          </mxGeometry>
        </mxCell>
        <mxCell id="bhZwOV67Gbov-zILEt_u-315" value="Selected car information" style="text;html=1;align=center;verticalAlign=middle;resizable=0;points=[];autosize=1;fontSize=14;spacingTop=0;fillOpacity=100;" vertex="1" parent="bhZwOV67Gbov-zILEt_u-349">
          <mxGeometry x="2670" y="639.5899999999999" width="170" height="30" as="geometry" />
        </mxCell>
        <mxCell id="bhZwOV67Gbov-zILEt_u-296" value="" style="edgeStyle=orthogonalEdgeStyle;orthogonalLoop=1;jettySize=auto;entryX=0.5;entryY=0;entryDx=0;entryDy=0;html=1;rounded=0;fontSize=14;spacingTop=0;fillOpacity=100;" edge="1" source="bhZwOV67Gbov-zILEt_u-298" target="bhZwOV67Gbov-zILEt_u-302" parent="bhZwOV67Gbov-zILEt_u-349">
          <mxGeometry relative="1" as="geometry" />
        </mxCell>
        <mxCell id="bhZwOV67Gbov-zILEt_u-316" style="edgeStyle=orthogonalEdgeStyle;orthogonalLoop=1;jettySize=auto;html=1;entryX=0.5;entryY=1;entryDx=0;entryDy=0;fontSize=14;spacingTop=0;fillOpacity=100;" edge="1" source="bhZwOV67Gbov-zILEt_u-283" target="bhZwOV67Gbov-zILEt_u-283" parent="bhZwOV67Gbov-zILEt_u-349">
          <mxGeometry relative="1" as="geometry" />
        </mxCell>
        <mxCell id="bhZwOV67Gbov-zILEt_u-317" value="" style="endArrow=classic;html=1;rounded=0;startArrow=oval;startFill=1;fontSize=14;labelBackgroundColor=none;fontColor=default;spacingTop=0;fillOpacity=100;" edge="1" parent="bhZwOV67Gbov-zILEt_u-349">
          <mxGeometry x="0.92" y="-64" width="50" height="50" relative="1" as="geometry">
            <mxPoint x="2920" y="690" as="sourcePoint" />
            <mxPoint x="2920" y="640" as="targetPoint" />
            <mxPoint as="offset" />
          </mxGeometry>
        </mxCell>
        <mxCell id="bhZwOV67Gbov-zILEt_u-318" value="Ride Reuqest&lt;br style=&quot;font-size: 14px;&quot;&gt;Notification" style="text;html=1;align=center;verticalAlign=middle;resizable=0;points=[];autosize=1;rotation=90;fontSize=14;spacingTop=0;fillOpacity=100;" vertex="1" parent="bhZwOV67Gbov-zILEt_u-349">
          <mxGeometry x="2895" y="635" width="110" height="50" as="geometry" />
        </mxCell>
        <mxCell id="bhZwOV67Gbov-zILEt_u-319" value="" style="endArrow=classic;html=1;rounded=0;startArrow=oval;startFill=0;fontSize=14;labelBackgroundColor=none;fontColor=default;spacingTop=0;fillOpacity=100;" edge="1" parent="bhZwOV67Gbov-zILEt_u-349">
          <mxGeometry x="0.92" y="-64" width="50" height="50" relative="1" as="geometry">
            <mxPoint x="3200" y="539.58" as="sourcePoint" />
            <mxPoint x="3140" y="540" as="targetPoint" />
            <mxPoint as="offset" />
          </mxGeometry>
        </mxCell>
        <mxCell id="bhZwOV67Gbov-zILEt_u-320" value="Ride details" style="text;html=1;align=center;verticalAlign=middle;resizable=0;points=[];autosize=1;fontSize=14;spacingTop=0;fillOpacity=100;" vertex="1" parent="bhZwOV67Gbov-zILEt_u-349">
          <mxGeometry x="3105" y="510" width="100" height="30" as="geometry" />
        </mxCell>
        <mxCell id="bhZwOV67Gbov-zILEt_u-321" value="" style="endArrow=classic;html=1;rounded=0;startArrow=oval;startFill=1;fontSize=14;labelBackgroundColor=none;fontColor=default;spacingTop=0;fillOpacity=100;" edge="1" parent="bhZwOV67Gbov-zILEt_u-349">
          <mxGeometry x="0.92" y="-64" width="50" height="50" relative="1" as="geometry">
            <mxPoint x="3390" y="700" as="sourcePoint" />
            <mxPoint x="3390" y="650" as="targetPoint" />
            <mxPoint as="offset" />
          </mxGeometry>
        </mxCell>
        <mxCell id="bhZwOV67Gbov-zILEt_u-322" value="Ride Request&lt;br style=&quot;font-size: 14px;&quot;&gt;Cancellation&lt;br style=&quot;font-size: 14px;&quot;&gt;Message" style="text;html=1;align=center;verticalAlign=middle;resizable=0;points=[];autosize=1;rotation=90;fontSize=14;spacingTop=0;fillOpacity=100;" vertex="1" parent="bhZwOV67Gbov-zILEt_u-349">
          <mxGeometry x="3365" y="640" width="110" height="60" as="geometry" />
        </mxCell>
        <mxCell id="bhZwOV67Gbov-zILEt_u-323" value="" style="endArrow=classic;html=1;rounded=0;startArrow=oval;startFill=0;fontSize=14;labelBackgroundColor=none;fontColor=default;spacingTop=0;fillOpacity=100;" edge="1" parent="bhZwOV67Gbov-zILEt_u-349">
          <mxGeometry x="0.92" y="-64" width="50" height="50" relative="1" as="geometry">
            <mxPoint x="3890" y="360" as="sourcePoint" />
            <mxPoint x="3790" y="360" as="targetPoint" />
            <mxPoint as="offset" />
          </mxGeometry>
        </mxCell>
        <mxCell id="bhZwOV67Gbov-zILEt_u-324" value="Payment Details" style="text;html=1;align=center;verticalAlign=middle;resizable=0;points=[];autosize=1;fontSize=14;spacingTop=0;fillOpacity=100;" vertex="1" parent="bhZwOV67Gbov-zILEt_u-349">
          <mxGeometry x="3780" y="330" width="130" height="30" as="geometry" />
        </mxCell>
        <mxCell id="bhZwOV67Gbov-zILEt_u-325" value="" style="endArrow=classic;html=1;rounded=0;startArrow=oval;startFill=0;fontSize=14;labelBackgroundColor=none;fontColor=default;spacingTop=0;fillOpacity=100;" edge="1" parent="bhZwOV67Gbov-zILEt_u-349">
          <mxGeometry x="0.92" y="-64" width="50" height="50" relative="1" as="geometry">
            <mxPoint x="3900" y="490" as="sourcePoint" />
            <mxPoint x="3900" y="450" as="targetPoint" />
            <mxPoint as="offset" />
          </mxGeometry>
        </mxCell>
        <mxCell id="bhZwOV67Gbov-zILEt_u-326" value="Validation Succes&lt;br style=&quot;font-size: 14px;&quot;&gt;&amp;nbsp;message" style="text;html=1;align=center;verticalAlign=middle;resizable=0;points=[];autosize=1;rotation=-90;fontSize=14;spacingTop=0;fillOpacity=100;" vertex="1" parent="bhZwOV67Gbov-zILEt_u-349">
          <mxGeometry x="3815" y="435" width="130" height="50" as="geometry" />
        </mxCell>
        <mxCell id="bhZwOV67Gbov-zILEt_u-327" value="" style="endArrow=classic;html=1;rounded=0;startArrow=oval;startFill=0;fontSize=14;labelBackgroundColor=none;fontColor=default;spacingTop=0;fillOpacity=100;" edge="1" parent="bhZwOV67Gbov-zILEt_u-349">
          <mxGeometry x="0.92" y="-64" width="50" height="50" relative="1" as="geometry">
            <mxPoint x="4070" y="490" as="sourcePoint" />
            <mxPoint x="4070" y="450" as="targetPoint" />
            <mxPoint as="offset" />
          </mxGeometry>
        </mxCell>
        <mxCell id="bhZwOV67Gbov-zILEt_u-328" value="Payment Transaction&lt;br style=&quot;font-size: 14px;&quot;&gt;&amp;nbsp;Success Message" style="text;html=1;align=center;verticalAlign=middle;resizable=0;points=[];autosize=1;rotation=90;fontSize=14;spacingTop=0;fillOpacity=100;" vertex="1" parent="bhZwOV67Gbov-zILEt_u-349">
          <mxGeometry x="4010" y="425" width="160" height="50" as="geometry" />
        </mxCell>
        <mxCell id="bhZwOV67Gbov-zILEt_u-329" value="" style="endArrow=classic;html=1;rounded=0;startArrow=oval;startFill=0;fontSize=14;labelBackgroundColor=none;fontColor=default;spacingTop=0;fillOpacity=100;" edge="1" parent="bhZwOV67Gbov-zILEt_u-349">
          <mxGeometry x="0.92" y="-64" width="50" height="50" relative="1" as="geometry">
            <mxPoint x="4200" y="360" as="sourcePoint" />
            <mxPoint x="4100" y="360" as="targetPoint" />
            <mxPoint as="offset" />
          </mxGeometry>
        </mxCell>
        <mxCell id="bhZwOV67Gbov-zILEt_u-330" value="Payment Confirmation Message" style="text;html=1;align=center;verticalAlign=middle;resizable=0;points=[];autosize=1;fontSize=14;spacingTop=0;fillOpacity=100;" vertex="1" parent="bhZwOV67Gbov-zILEt_u-349">
          <mxGeometry x="4040" y="330" width="220" height="30" as="geometry" />
        </mxCell>
        <mxCell id="bhZwOV67Gbov-zILEt_u-331" value="" style="endArrow=classic;html=1;rounded=0;startArrow=oval;startFill=0;fontSize=14;labelBackgroundColor=none;fontColor=default;spacingTop=0;fillOpacity=100;" edge="1" parent="bhZwOV67Gbov-zILEt_u-349">
          <mxGeometry x="0.92" y="-64" width="50" height="50" relative="1" as="geometry">
            <mxPoint x="4760" y="369.57000000000005" as="sourcePoint" />
            <mxPoint x="4660" y="369.57000000000005" as="targetPoint" />
            <mxPoint as="offset" />
          </mxGeometry>
        </mxCell>
        <mxCell id="bhZwOV67Gbov-zILEt_u-332" value="Feedback Details" style="text;html=1;align=center;verticalAlign=middle;resizable=0;points=[];autosize=1;fontSize=14;spacingTop=0;fillOpacity=100;" vertex="1" parent="bhZwOV67Gbov-zILEt_u-349">
          <mxGeometry x="4635" y="340" width="130" height="30" as="geometry" />
        </mxCell>
        <mxCell id="bhZwOV67Gbov-zILEt_u-333" value="" style="endArrow=classic;html=1;rounded=0;startArrow=oval;startFill=0;fontSize=14;labelBackgroundColor=none;fontColor=default;spacingTop=0;fillOpacity=100;" edge="1" parent="bhZwOV67Gbov-zILEt_u-349">
          <mxGeometry x="0.92" y="-64" width="50" height="50" relative="1" as="geometry">
            <mxPoint x="4460" y="519.13" as="sourcePoint" />
            <mxPoint x="4340" y="519.13" as="targetPoint" />
            <mxPoint as="offset" />
          </mxGeometry>
        </mxCell>
        <mxCell id="bhZwOV67Gbov-zILEt_u-334" value="Ride details" style="text;html=1;align=center;verticalAlign=middle;resizable=0;points=[];autosize=1;fontSize=14;spacingTop=0;fillOpacity=100;" vertex="1" parent="bhZwOV67Gbov-zILEt_u-349">
          <mxGeometry x="4365" y="489.54999999999995" width="100" height="30" as="geometry" />
        </mxCell>
        <mxCell id="bhZwOV67Gbov-zILEt_u-335" value="Driver Feedback" style="text;html=1;align=center;verticalAlign=middle;resizable=0;points=[];autosize=1;rotation=-90;fontSize=14;spacingTop=0;fillOpacity=100;" vertex="1" parent="bhZwOV67Gbov-zILEt_u-349">
          <mxGeometry x="4380" y="690" width="130" height="30" as="geometry" />
        </mxCell>
        <mxCell id="bhZwOV67Gbov-zILEt_u-336" value="" style="endArrow=classic;html=1;rounded=0;startArrow=oval;startFill=0;fontSize=14;labelBackgroundColor=none;fontColor=default;spacingTop=0;fillOpacity=100;" edge="1" parent="bhZwOV67Gbov-zILEt_u-349">
          <mxGeometry x="0.92" y="-64" width="50" height="50" relative="1" as="geometry">
            <mxPoint x="4460" y="679.13" as="sourcePoint" />
            <mxPoint x="4460" y="740" as="targetPoint" />
            <mxPoint as="offset" />
          </mxGeometry>
        </mxCell>
        <mxCell id="bhZwOV67Gbov-zILEt_u-290" style="edgeStyle=orthogonalEdgeStyle;orthogonalLoop=1;jettySize=auto;html=1;entryX=0.5;entryY=0;entryDx=0;entryDy=0;rounded=0;fontSize=14;spacingTop=0;fillOpacity=100;" edge="1" source="bhZwOV67Gbov-zILEt_u-293" target="bhZwOV67Gbov-zILEt_u-303" parent="bhZwOV67Gbov-zILEt_u-349">
          <mxGeometry relative="1" as="geometry" />
        </mxCell>
        <mxCell id="bhZwOV67Gbov-zILEt_u-337" style="edgeStyle=orthogonalEdgeStyle;orthogonalLoop=1;jettySize=auto;html=1;entryX=0.5;entryY=1;entryDx=0;entryDy=0;fontSize=14;spacingTop=0;fillOpacity=100;" edge="1" source="bhZwOV67Gbov-zILEt_u-302" target="bhZwOV67Gbov-zILEt_u-302" parent="bhZwOV67Gbov-zILEt_u-349">
          <mxGeometry relative="1" as="geometry" />
        </mxCell>
        <mxCell id="bhZwOV67Gbov-zILEt_u-338" value="" style="endArrow=classic;html=1;rounded=0;startArrow=oval;startFill=0;fontSize=14;labelBackgroundColor=none;fontColor=default;spacingTop=0;fillOpacity=100;" edge="1" parent="bhZwOV67Gbov-zILEt_u-349">
          <mxGeometry x="0.92" y="-64" width="50" height="50" relative="1" as="geometry">
            <mxPoint x="4810" y="519.55" as="sourcePoint" />
            <mxPoint x="4690" y="519.55" as="targetPoint" />
            <mxPoint as="offset" />
          </mxGeometry>
        </mxCell>
        <mxCell id="bhZwOV67Gbov-zILEt_u-339" value="Feedback send&lt;br style=&quot;font-size: 14px;&quot;&gt;success message" style="text;html=1;align=center;verticalAlign=middle;resizable=0;points=[];autosize=1;fontSize=14;spacingTop=0;fillOpacity=100;" vertex="1" parent="bhZwOV67Gbov-zILEt_u-349">
          <mxGeometry x="4695" y="475" width="130" height="50" as="geometry" />
        </mxCell>
        <mxCell id="bhZwOV67Gbov-zILEt_u-340" value="" style="endArrow=classic;html=1;rounded=0;startArrow=oval;startFill=0;fontSize=14;labelBackgroundColor=none;fontColor=default;spacingTop=0;fillOpacity=100;" edge="1" parent="bhZwOV67Gbov-zILEt_u-349">
          <mxGeometry x="0.92" y="-64" width="50" height="50" relative="1" as="geometry">
            <mxPoint x="5170" y="374.35" as="sourcePoint" />
            <mxPoint x="5070" y="374.35" as="targetPoint" />
            <mxPoint as="offset" />
          </mxGeometry>
        </mxCell>
        <mxCell id="bhZwOV67Gbov-zILEt_u-341" value="Outcome Result" style="text;html=1;align=center;verticalAlign=middle;resizable=0;points=[];autosize=1;fontSize=14;spacingTop=0;fillOpacity=100;" vertex="1" parent="bhZwOV67Gbov-zILEt_u-349">
          <mxGeometry x="5065" y="345" width="120" height="30" as="geometry" />
        </mxCell>
        <mxCell id="bhZwOV67Gbov-zILEt_u-342" value="" style="endArrow=classic;html=1;rounded=0;startArrow=oval;startFill=0;fontSize=14;labelBackgroundColor=none;fontColor=default;spacingTop=0;fillOpacity=100;" edge="1" parent="bhZwOV67Gbov-zILEt_u-349">
          <mxGeometry x="0.92" y="-64" width="50" height="50" relative="1" as="geometry">
            <mxPoint x="5080" y="560" as="sourcePoint" />
            <mxPoint x="5080" y="630" as="targetPoint" />
            <mxPoint as="offset" />
          </mxGeometry>
        </mxCell>
        <mxCell id="bhZwOV67Gbov-zILEt_u-343" value="Report Details" style="text;html=1;align=center;verticalAlign=middle;resizable=0;points=[];autosize=1;rotation=-90;fontSize=14;spacingTop=0;fillOpacity=100;" vertex="1" parent="bhZwOV67Gbov-zILEt_u-349">
          <mxGeometry x="5010" y="580" width="110" height="30" as="geometry" />
        </mxCell>
        <mxCell id="bhZwOV67Gbov-zILEt_u-344" value="" style="endArrow=classic;html=1;rounded=0;startArrow=oval;startFill=0;fontSize=14;labelBackgroundColor=none;fontColor=default;spacingTop=0;fillOpacity=100;" edge="1" parent="bhZwOV67Gbov-zILEt_u-349">
          <mxGeometry x="0.92" y="-64" width="50" height="50" relative="1" as="geometry">
            <mxPoint x="5270" y="690" as="sourcePoint" />
            <mxPoint x="5270" y="610" as="targetPoint" />
            <mxPoint as="offset" />
          </mxGeometry>
        </mxCell>
        <mxCell id="bhZwOV67Gbov-zILEt_u-345" value="Result of Report" style="text;html=1;align=center;verticalAlign=middle;resizable=0;points=[];autosize=1;rotation=-90;fontSize=14;spacingTop=0;fillOpacity=100;" vertex="1" parent="bhZwOV67Gbov-zILEt_u-349">
          <mxGeometry x="5190" y="639.59" width="120" height="30" as="geometry" />
        </mxCell>
        <mxCell id="bhZwOV67Gbov-zILEt_u-346" value="" style="endArrow=classic;html=1;rounded=0;startArrow=oval;startFill=0;fontSize=14;labelBackgroundColor=none;fontColor=default;spacingTop=0;fillOpacity=100;" edge="1" parent="bhZwOV67Gbov-zILEt_u-349">
          <mxGeometry x="0.92" y="-64" width="50" height="50" relative="1" as="geometry">
            <mxPoint x="5430" y="694.5899999999999" as="sourcePoint" />
            <mxPoint x="5430" y="614.59" as="targetPoint" />
            <mxPoint as="offset" />
          </mxGeometry>
        </mxCell>
        <mxCell id="bhZwOV67Gbov-zILEt_u-347" value="Outcome reported success&lt;br style=&quot;font-size: 14px;&quot;&gt;message" style="text;html=1;align=center;verticalAlign=middle;resizable=0;points=[];autosize=1;rotation=-90;fontSize=14;spacingTop=0;fillOpacity=100;" vertex="1" parent="bhZwOV67Gbov-zILEt_u-349">
          <mxGeometry x="5310" y="630" width="190" height="50" as="geometry" />
        </mxCell>
        <mxCell id="bhZwOV67Gbov-zILEt_u-292" style="edgeStyle=orthogonalEdgeStyle;orthogonalLoop=1;jettySize=auto;html=1;entryX=0.5;entryY=0;entryDx=0;entryDy=0;rounded=0;fontSize=14;spacingTop=0;fillOpacity=100;" edge="1" source="bhZwOV67Gbov-zILEt_u-293" target="bhZwOV67Gbov-zILEt_u-304" parent="bhZwOV67Gbov-zILEt_u-349">
          <mxGeometry relative="1" as="geometry" />
        </mxCell>
        <mxCell id="bhZwOV67Gbov-zILEt_u-291" style="edgeStyle=orthogonalEdgeStyle;orthogonalLoop=1;jettySize=auto;html=1;entryX=0.5;entryY=0;entryDx=0;entryDy=0;rounded=0;fontSize=14;spacingTop=0;fillOpacity=100;" edge="1" source="bhZwOV67Gbov-zILEt_u-293" target="bhZwOV67Gbov-zILEt_u-305" parent="bhZwOV67Gbov-zILEt_u-349">
          <mxGeometry relative="1" as="geometry" />
        </mxCell>
        <mxCell id="baaq-4lyddFwtSRx4nJD-15" value="1.1.1&lt;br style=&quot;font-size: 14px;&quot;&gt;Account registration" style="rounded=0;whiteSpace=wrap;html=1;labelBackgroundColor=none;fontSize=14;spacingTop=0;fillOpacity=100;" parent="bhZwOV67Gbov-zILEt_u-349" vertex="1">
          <mxGeometry x="1285" y="984.59" width="120" height="60" as="geometry" />
        </mxCell>
        <mxCell id="bhZwOV67Gbov-zILEt_u-52" style="edgeStyle=orthogonalEdgeStyle;rounded=0;orthogonalLoop=1;jettySize=auto;html=1;fontSize=14;spacingTop=0;fillOpacity=100;" edge="1" parent="bhZwOV67Gbov-zILEt_u-349" source="baaq-4lyddFwtSRx4nJD-31">
          <mxGeometry relative="1" as="geometry">
            <mxPoint x="665" y="1534.59" as="targetPoint" />
          </mxGeometry>
        </mxCell>
        <mxCell id="baaq-4lyddFwtSRx4nJD-31" value="1.1.1.1&lt;br style=&quot;font-size: 14px;&quot;&gt;Driver registration" style="rounded=0;whiteSpace=wrap;html=1;labelBackgroundColor=none;fontSize=14;spacingTop=0;fillOpacity=100;" parent="bhZwOV67Gbov-zILEt_u-349" vertex="1">
          <mxGeometry x="875" y="1264.59" width="120" height="60" as="geometry" />
        </mxCell>
        <mxCell id="bhZwOV67Gbov-zILEt_u-49" style="edgeStyle=orthogonalEdgeStyle;rounded=0;orthogonalLoop=1;jettySize=auto;html=1;entryX=0.5;entryY=0;entryDx=0;entryDy=0;fontSize=14;spacingTop=0;fillOpacity=100;" edge="1" parent="bhZwOV67Gbov-zILEt_u-349" source="baaq-4lyddFwtSRx4nJD-15" target="baaq-4lyddFwtSRx4nJD-31">
          <mxGeometry relative="1" as="geometry" />
        </mxCell>
        <mxCell id="baaq-4lyddFwtSRx4nJD-32" value="1.1.1.2&lt;br style=&quot;font-size: 14px;&quot;&gt;Passanger registration" style="rounded=0;whiteSpace=wrap;html=1;labelBackgroundColor=none;fontSize=14;spacingTop=0;fillOpacity=100;" parent="bhZwOV67Gbov-zILEt_u-349" vertex="1">
          <mxGeometry x="1665" y="1224.59" width="120" height="60" as="geometry" />
        </mxCell>
        <mxCell id="bhZwOV67Gbov-zILEt_u-48" style="edgeStyle=orthogonalEdgeStyle;rounded=0;orthogonalLoop=1;jettySize=auto;html=1;entryX=0.5;entryY=0;entryDx=0;entryDy=0;fontSize=14;spacingTop=0;fillOpacity=100;" edge="1" parent="bhZwOV67Gbov-zILEt_u-349" source="baaq-4lyddFwtSRx4nJD-15" target="baaq-4lyddFwtSRx4nJD-32">
          <mxGeometry relative="1" as="geometry" />
        </mxCell>
        <mxCell id="baaq-4lyddFwtSRx4nJD-35" value="" style="endArrow=classic;html=1;rounded=0;startArrow=oval;startFill=0;fontSize=14;labelBackgroundColor=none;fontColor=default;spacingTop=0;fillOpacity=100;" parent="bhZwOV67Gbov-zILEt_u-349" edge="1">
          <mxGeometry x="0.92" y="-64" width="50" height="50" relative="1" as="geometry">
            <mxPoint x="1205" y="994.59" as="sourcePoint" />
            <mxPoint x="1105" y="994.59" as="targetPoint" />
            <mxPoint as="offset" />
          </mxGeometry>
        </mxCell>
        <mxCell id="baaq-4lyddFwtSRx4nJD-36" value="Driver personal&lt;br style=&quot;border-color: var(--border-color); font-size: 14px;&quot;&gt;&lt;span style=&quot;font-size: 14px; background-color: rgb(255, 255, 255);&quot;&gt;and vehicle information&lt;/span&gt;" style="text;html=1;align=center;verticalAlign=middle;resizable=0;points=[];autosize=1;rotation=0;fontSize=14;labelBackgroundColor=none;rounded=0;spacingTop=0;fillOpacity=100;" parent="bhZwOV67Gbov-zILEt_u-349" vertex="1">
          <mxGeometry x="1070" y="949.59" width="170" height="50" as="geometry" />
        </mxCell>
        <mxCell id="baaq-4lyddFwtSRx4nJD-37" value="" style="endArrow=classic;html=1;rounded=0;startArrow=oval;startFill=0;fontSize=14;labelBackgroundColor=none;fontColor=default;spacingTop=0;fillOpacity=100;" parent="bhZwOV67Gbov-zILEt_u-349" edge="1">
          <mxGeometry x="0.92" y="-64" width="50" height="50" relative="1" as="geometry">
            <mxPoint x="1515" y="994.59" as="sourcePoint" />
            <mxPoint x="1635" y="994.59" as="targetPoint" />
            <mxPoint as="offset" />
          </mxGeometry>
        </mxCell>
        <mxCell id="baaq-4lyddFwtSRx4nJD-38" value="Passanger Personal&lt;br style=&quot;font-size: 14px;&quot;&gt;information" style="text;html=1;align=center;verticalAlign=middle;resizable=0;points=[];autosize=1;rotation=0;fontSize=14;labelBackgroundColor=none;rounded=0;spacingTop=0;fillOpacity=100;" parent="bhZwOV67Gbov-zILEt_u-349" vertex="1">
          <mxGeometry x="1500" y="949.59" width="150" height="50" as="geometry" />
        </mxCell>
        <mxCell id="baaq-4lyddFwtSRx4nJD-40" value="" style="endArrow=classic;html=1;rounded=0;startArrow=oval;startFill=1;fontSize=14;labelBackgroundColor=none;fontColor=default;spacingTop=0;fillOpacity=100;" parent="bhZwOV67Gbov-zILEt_u-349" edge="1">
          <mxGeometry x="0.92" y="-64" width="50" height="50" relative="1" as="geometry">
            <mxPoint x="1675" y="704.59" as="sourcePoint" />
            <mxPoint x="1785" y="704.59" as="targetPoint" />
            <mxPoint as="offset" />
          </mxGeometry>
        </mxCell>
        <mxCell id="baaq-4lyddFwtSRx4nJD-42" value="Registration&lt;br style=&quot;font-size: 14px;&quot;&gt;confirmation&lt;br style=&quot;font-size: 14px;&quot;&gt;message" style="text;html=1;align=center;verticalAlign=middle;resizable=0;points=[];autosize=1;rotation=-90;fontSize=14;labelBackgroundColor=none;rounded=0;spacingTop=0;fillOpacity=100;" parent="bhZwOV67Gbov-zILEt_u-349" vertex="1">
          <mxGeometry x="1240" y="690" width="100" height="60" as="geometry" />
        </mxCell>
        <mxCell id="bhZwOV67Gbov-zILEt_u-1" value="1.1.1.1.1&lt;br style=&quot;font-size: 14px;&quot;&gt;Validate Registration Data" style="rounded=0;whiteSpace=wrap;html=1;labelBackgroundColor=none;fontSize=14;spacingTop=0;fillOpacity=100;" vertex="1" parent="bhZwOV67Gbov-zILEt_u-349">
          <mxGeometry x="605" y="1534.59" width="120" height="60" as="geometry" />
        </mxCell>
        <mxCell id="bhZwOV67Gbov-zILEt_u-2" value="1.1.1.1.2&lt;br style=&quot;font-size: 14px;&quot;&gt;Generate Account ID" style="rounded=0;whiteSpace=wrap;html=1;labelBackgroundColor=none;fontSize=14;spacingTop=0;fillOpacity=100;" vertex="1" parent="bhZwOV67Gbov-zILEt_u-349">
          <mxGeometry x="785" y="1534.59" width="120" height="60" as="geometry" />
        </mxCell>
        <mxCell id="bhZwOV67Gbov-zILEt_u-55" style="edgeStyle=orthogonalEdgeStyle;rounded=0;orthogonalLoop=1;jettySize=auto;html=1;entryX=0.5;entryY=0;entryDx=0;entryDy=0;fontSize=14;spacingTop=0;fillOpacity=100;" edge="1" parent="bhZwOV67Gbov-zILEt_u-349" source="baaq-4lyddFwtSRx4nJD-31" target="bhZwOV67Gbov-zILEt_u-2">
          <mxGeometry relative="1" as="geometry" />
        </mxCell>
        <mxCell id="bhZwOV67Gbov-zILEt_u-3" value="1.1.1.1.3&lt;br style=&quot;font-size: 14px;&quot;&gt;Store account Information" style="rounded=0;whiteSpace=wrap;html=1;labelBackgroundColor=none;fontSize=14;spacingTop=0;fillOpacity=100;" vertex="1" parent="bhZwOV67Gbov-zILEt_u-349">
          <mxGeometry x="965" y="1534.59" width="120" height="60" as="geometry" />
        </mxCell>
        <mxCell id="bhZwOV67Gbov-zILEt_u-58" style="edgeStyle=orthogonalEdgeStyle;rounded=0;orthogonalLoop=1;jettySize=auto;html=1;entryX=0.5;entryY=0;entryDx=0;entryDy=0;fontSize=14;spacingTop=0;fillOpacity=100;" edge="1" parent="bhZwOV67Gbov-zILEt_u-349" source="baaq-4lyddFwtSRx4nJD-31" target="bhZwOV67Gbov-zILEt_u-3">
          <mxGeometry relative="1" as="geometry" />
        </mxCell>
        <mxCell id="bhZwOV67Gbov-zILEt_u-4" value="1.1.1.1.4&lt;br style=&quot;font-size: 14px;&quot;&gt;Send Registration Confirmation" style="rounded=0;whiteSpace=wrap;html=1;labelBackgroundColor=none;fontSize=14;spacingTop=0;fillOpacity=100;" vertex="1" parent="bhZwOV67Gbov-zILEt_u-349">
          <mxGeometry x="1145" y="1534.59" width="120" height="60" as="geometry" />
        </mxCell>
        <mxCell id="bhZwOV67Gbov-zILEt_u-59" style="edgeStyle=orthogonalEdgeStyle;rounded=0;orthogonalLoop=1;jettySize=auto;html=1;entryX=0.5;entryY=0;entryDx=0;entryDy=0;fontSize=14;spacingTop=0;fillOpacity=100;" edge="1" parent="bhZwOV67Gbov-zILEt_u-349" source="baaq-4lyddFwtSRx4nJD-31" target="bhZwOV67Gbov-zILEt_u-4">
          <mxGeometry relative="1" as="geometry" />
        </mxCell>
        <mxCell id="bhZwOV67Gbov-zILEt_u-11" value="1.1.1.2.1&lt;br style=&quot;font-size: 14px;&quot;&gt;Validate Registration Data" style="rounded=0;whiteSpace=wrap;html=1;labelBackgroundColor=none;fontSize=14;spacingTop=0;fillOpacity=100;" vertex="1" parent="bhZwOV67Gbov-zILEt_u-349">
          <mxGeometry x="1385" y="1534.59" width="120" height="60" as="geometry" />
        </mxCell>
        <mxCell id="bhZwOV67Gbov-zILEt_u-60" style="edgeStyle=orthogonalEdgeStyle;rounded=0;orthogonalLoop=1;jettySize=auto;html=1;entryX=0.5;entryY=0;entryDx=0;entryDy=0;fontSize=14;spacingTop=0;fillOpacity=100;" edge="1" parent="bhZwOV67Gbov-zILEt_u-349" source="baaq-4lyddFwtSRx4nJD-32" target="bhZwOV67Gbov-zILEt_u-11">
          <mxGeometry relative="1" as="geometry" />
        </mxCell>
        <mxCell id="bhZwOV67Gbov-zILEt_u-12" value="1.1.1.2.2&lt;br style=&quot;font-size: 14px;&quot;&gt;Generate Account ID" style="rounded=0;whiteSpace=wrap;html=1;labelBackgroundColor=none;fontSize=14;spacingTop=0;fillOpacity=100;" vertex="1" parent="bhZwOV67Gbov-zILEt_u-349">
          <mxGeometry x="1565" y="1534.59" width="120" height="60" as="geometry" />
        </mxCell>
        <mxCell id="bhZwOV67Gbov-zILEt_u-62" style="edgeStyle=orthogonalEdgeStyle;rounded=0;orthogonalLoop=1;jettySize=auto;html=1;entryX=0.5;entryY=0;entryDx=0;entryDy=0;exitX=0.5;exitY=1;exitDx=0;exitDy=0;fontSize=14;spacingTop=0;fillOpacity=100;" edge="1" parent="bhZwOV67Gbov-zILEt_u-349" source="baaq-4lyddFwtSRx4nJD-32" target="bhZwOV67Gbov-zILEt_u-12">
          <mxGeometry relative="1" as="geometry" />
        </mxCell>
        <mxCell id="bhZwOV67Gbov-zILEt_u-13" value="1.1.1.2.3&lt;br style=&quot;font-size: 14px;&quot;&gt;Store account Information" style="rounded=0;whiteSpace=wrap;html=1;labelBackgroundColor=none;fontSize=14;spacingTop=0;fillOpacity=100;" vertex="1" parent="bhZwOV67Gbov-zILEt_u-349">
          <mxGeometry x="1745" y="1534.59" width="120" height="60" as="geometry" />
        </mxCell>
        <mxCell id="bhZwOV67Gbov-zILEt_u-63" style="edgeStyle=orthogonalEdgeStyle;rounded=0;orthogonalLoop=1;jettySize=auto;html=1;entryX=0.5;entryY=0;entryDx=0;entryDy=0;fontSize=14;spacingTop=0;fillOpacity=100;" edge="1" parent="bhZwOV67Gbov-zILEt_u-349" source="baaq-4lyddFwtSRx4nJD-32" target="bhZwOV67Gbov-zILEt_u-13">
          <mxGeometry relative="1" as="geometry" />
        </mxCell>
        <mxCell id="bhZwOV67Gbov-zILEt_u-14" value="1.1.1.2.4&lt;br style=&quot;font-size: 14px;&quot;&gt;Send Registration Confirmation" style="rounded=0;whiteSpace=wrap;html=1;labelBackgroundColor=none;fontSize=14;spacingTop=0;fillOpacity=100;" vertex="1" parent="bhZwOV67Gbov-zILEt_u-349">
          <mxGeometry x="1925" y="1534.59" width="120" height="60" as="geometry" />
        </mxCell>
        <mxCell id="bhZwOV67Gbov-zILEt_u-64" style="edgeStyle=orthogonalEdgeStyle;rounded=0;orthogonalLoop=1;jettySize=auto;html=1;entryX=0.5;entryY=0;entryDx=0;entryDy=0;fontSize=14;spacingTop=0;fillOpacity=100;" edge="1" parent="bhZwOV67Gbov-zILEt_u-349" source="baaq-4lyddFwtSRx4nJD-32" target="bhZwOV67Gbov-zILEt_u-14">
          <mxGeometry relative="1" as="geometry" />
        </mxCell>
        <mxCell id="bhZwOV67Gbov-zILEt_u-20" value="" style="endArrow=classic;html=1;rounded=0;startArrow=oval;startFill=1;fontSize=14;labelBackgroundColor=none;fontColor=default;spacingTop=0;fillOpacity=100;" edge="1" parent="bhZwOV67Gbov-zILEt_u-349">
          <mxGeometry x="0.92" y="-64" width="50" height="50" relative="1" as="geometry">
            <mxPoint x="645" y="1454.59" as="sourcePoint" />
            <mxPoint x="645" y="1384.59" as="targetPoint" />
            <mxPoint as="offset" />
          </mxGeometry>
        </mxCell>
        <mxCell id="bhZwOV67Gbov-zILEt_u-21" value="Validation Confirmation&lt;br style=&quot;font-size: 14px;&quot;&gt;&amp;nbsp;Number" style="text;html=1;align=center;verticalAlign=middle;resizable=0;points=[];autosize=1;rotation=-90;rounded=0;fontSize=14;spacingTop=0;fillOpacity=100;" vertex="1" parent="bhZwOV67Gbov-zILEt_u-349">
          <mxGeometry x="535" y="1394.59" width="170" height="50" as="geometry" />
        </mxCell>
        <mxCell id="bhZwOV67Gbov-zILEt_u-23" value="" style="endArrow=classic;html=1;rounded=0;startArrow=oval;startFill=1;fontSize=14;labelBackgroundColor=none;fontColor=default;spacingTop=0;fillOpacity=100;" edge="1" parent="bhZwOV67Gbov-zILEt_u-349">
          <mxGeometry x="0.92" y="-64" width="50" height="50" relative="1" as="geometry">
            <mxPoint x="835" y="1499.59" as="sourcePoint" />
            <mxPoint x="835" y="1449.59" as="targetPoint" />
            <mxPoint as="offset" />
          </mxGeometry>
        </mxCell>
        <mxCell id="bhZwOV67Gbov-zILEt_u-24" value="Account ID" style="text;html=1;align=center;verticalAlign=middle;resizable=0;points=[];autosize=1;rotation=-90;rounded=0;fontSize=14;spacingTop=0;fillOpacity=100;" vertex="1" parent="bhZwOV67Gbov-zILEt_u-349">
          <mxGeometry x="770" y="1464.59" width="90" height="30" as="geometry" />
        </mxCell>
        <mxCell id="bhZwOV67Gbov-zILEt_u-25" value="" style="endArrow=classic;html=1;rounded=0;startArrow=oval;startFill=1;fontSize=14;labelBackgroundColor=none;fontColor=default;spacingTop=0;fillOpacity=100;" edge="1" parent="bhZwOV67Gbov-zILEt_u-349">
          <mxGeometry x="0.92" y="-64" width="50" height="50" relative="1" as="geometry">
            <mxPoint x="1035" y="1499.59" as="sourcePoint" />
            <mxPoint x="1035" y="1449.59" as="targetPoint" />
            <mxPoint as="offset" />
          </mxGeometry>
        </mxCell>
        <mxCell id="bhZwOV67Gbov-zILEt_u-26" value="Store succes&lt;br style=&quot;font-size: 14px;&quot;&gt;message" style="text;html=1;align=center;verticalAlign=middle;resizable=0;points=[];autosize=1;rotation=90;fontSize=14;rounded=0;spacingTop=0;fillOpacity=100;" vertex="1" parent="bhZwOV67Gbov-zILEt_u-349">
          <mxGeometry x="1005" y="1449.59" width="100" height="50" as="geometry" />
        </mxCell>
        <mxCell id="bhZwOV67Gbov-zILEt_u-27" value="" style="endArrow=classic;html=1;rounded=0;startArrow=oval;startFill=1;fontSize=14;labelBackgroundColor=none;fontColor=default;spacingTop=0;fillOpacity=100;" edge="1" parent="bhZwOV67Gbov-zILEt_u-349">
          <mxGeometry x="0.92" y="-64" width="50" height="50" relative="1" as="geometry">
            <mxPoint x="1215" y="1444.59" as="sourcePoint" />
            <mxPoint x="1215" y="1384.59" as="targetPoint" />
            <mxPoint as="offset" />
          </mxGeometry>
        </mxCell>
        <mxCell id="bhZwOV67Gbov-zILEt_u-28" value="Registration Confirmation&lt;br style=&quot;font-size: 14px;&quot;&gt;&amp;nbsp;Message" style="text;html=1;align=center;verticalAlign=middle;resizable=0;points=[];autosize=1;rotation=90;fontSize=14;rounded=0;spacingTop=0;fillOpacity=100;" vertex="1" parent="bhZwOV67Gbov-zILEt_u-349">
          <mxGeometry x="1140" y="1389.59" width="180" height="50" as="geometry" />
        </mxCell>
        <mxCell id="bhZwOV67Gbov-zILEt_u-31" value="" style="endArrow=classic;html=1;rounded=0;startArrow=oval;startFill=1;fontSize=14;labelBackgroundColor=none;fontColor=default;spacingTop=0;fillOpacity=100;" edge="1" parent="bhZwOV67Gbov-zILEt_u-349">
          <mxGeometry x="0.92" y="-64" width="50" height="50" relative="1" as="geometry">
            <mxPoint x="1435" y="1444.59" as="sourcePoint" />
            <mxPoint x="1435" y="1374.59" as="targetPoint" />
            <mxPoint as="offset" />
          </mxGeometry>
        </mxCell>
        <mxCell id="bhZwOV67Gbov-zILEt_u-32" value="Validation Confirmation&lt;br style=&quot;font-size: 14px;&quot;&gt;&amp;nbsp;Number" style="text;html=1;align=center;verticalAlign=middle;resizable=0;points=[];autosize=1;rotation=-90;rounded=0;fontSize=14;spacingTop=0;fillOpacity=100;" vertex="1" parent="bhZwOV67Gbov-zILEt_u-349">
          <mxGeometry x="1325" y="1389.59" width="170" height="50" as="geometry" />
        </mxCell>
        <mxCell id="bhZwOV67Gbov-zILEt_u-33" value="" style="endArrow=classic;html=1;rounded=0;startArrow=oval;startFill=1;fontSize=14;labelBackgroundColor=none;fontColor=default;spacingTop=0;fillOpacity=100;" edge="1" parent="bhZwOV67Gbov-zILEt_u-349">
          <mxGeometry x="0.92" y="-64" width="50" height="50" relative="1" as="geometry">
            <mxPoint x="1605" y="1474.59" as="sourcePoint" />
            <mxPoint x="1605" y="1424.59" as="targetPoint" />
            <mxPoint as="offset" />
          </mxGeometry>
        </mxCell>
        <mxCell id="bhZwOV67Gbov-zILEt_u-34" value="Account ID" style="text;html=1;align=center;verticalAlign=middle;resizable=0;points=[];autosize=1;rotation=-90;rounded=0;fontSize=14;spacingTop=0;fillOpacity=100;" vertex="1" parent="bhZwOV67Gbov-zILEt_u-349">
          <mxGeometry x="1550" y="1434.59" width="90" height="30" as="geometry" />
        </mxCell>
        <mxCell id="bhZwOV67Gbov-zILEt_u-35" value="" style="endArrow=classic;html=1;rounded=0;startArrow=oval;startFill=1;fontSize=14;labelBackgroundColor=none;fontColor=default;spacingTop=0;fillOpacity=100;" edge="1" parent="bhZwOV67Gbov-zILEt_u-349">
          <mxGeometry x="0.92" y="-64" width="50" height="50" relative="1" as="geometry">
            <mxPoint x="1815" y="1484.59" as="sourcePoint" />
            <mxPoint x="1815" y="1429.59" as="targetPoint" />
            <mxPoint as="offset" />
          </mxGeometry>
        </mxCell>
        <mxCell id="bhZwOV67Gbov-zILEt_u-36" value="Store succes&lt;br style=&quot;font-size: 14px;&quot;&gt;message" style="text;html=1;align=center;verticalAlign=middle;resizable=0;points=[];autosize=1;rotation=90;fontSize=14;rounded=0;spacingTop=0;fillOpacity=100;" vertex="1" parent="bhZwOV67Gbov-zILEt_u-349">
          <mxGeometry x="1785" y="1429.59" width="100" height="50" as="geometry" />
        </mxCell>
        <mxCell id="bhZwOV67Gbov-zILEt_u-37" value="" style="endArrow=classic;html=1;rounded=0;startArrow=oval;startFill=1;fontSize=14;labelBackgroundColor=none;fontColor=default;spacingTop=0;fillOpacity=100;" edge="1" parent="bhZwOV67Gbov-zILEt_u-349">
          <mxGeometry x="0.92" y="-64" width="50" height="50" relative="1" as="geometry">
            <mxPoint x="2005" y="1454.59" as="sourcePoint" />
            <mxPoint x="2005" y="1374.59" as="targetPoint" />
            <mxPoint as="offset" />
          </mxGeometry>
        </mxCell>
        <mxCell id="bhZwOV67Gbov-zILEt_u-38" value="Registration Confirmation&lt;br style=&quot;font-size: 14px;&quot;&gt;&amp;nbsp;Message" style="text;html=1;align=center;verticalAlign=middle;resizable=0;points=[];autosize=1;rotation=90;fontSize=14;rounded=0;spacingTop=0;fillOpacity=100;" vertex="1" parent="bhZwOV67Gbov-zILEt_u-349">
          <mxGeometry x="1930" y="1389.59" width="180" height="50" as="geometry" />
        </mxCell>
        <mxCell id="bhZwOV67Gbov-zILEt_u-225" value="1.1.1&lt;br style=&quot;font-size: 14px;&quot;&gt;Account registration" style="rounded=0;whiteSpace=wrap;html=1;labelBackgroundColor=none;fontSize=14;spacingTop=0;fillOpacity=100;" vertex="1" parent="bhZwOV67Gbov-zILEt_u-349">
          <mxGeometry x="1285" y="984.59" width="120" height="60" as="geometry" />
        </mxCell>
        <mxCell id="bhZwOV67Gbov-zILEt_u-232" style="edgeStyle=orthogonalEdgeStyle;rounded=0;orthogonalLoop=1;jettySize=auto;html=1;fontSize=14;spacingTop=0;fillOpacity=100;" edge="1" source="bhZwOV67Gbov-zILEt_u-236" parent="bhZwOV67Gbov-zILEt_u-349">
          <mxGeometry relative="1" as="geometry">
            <mxPoint x="665" y="1534.59" as="targetPoint" />
          </mxGeometry>
        </mxCell>
        <mxCell id="bhZwOV67Gbov-zILEt_u-236" value="1.1.1.1&lt;br style=&quot;font-size: 14px;&quot;&gt;Driver registration" style="rounded=0;whiteSpace=wrap;html=1;labelBackgroundColor=none;fontSize=14;spacingTop=0;fillOpacity=100;" vertex="1" parent="bhZwOV67Gbov-zILEt_u-349">
          <mxGeometry x="875" y="1264.59" width="120" height="60" as="geometry" />
        </mxCell>
        <mxCell id="bhZwOV67Gbov-zILEt_u-224" style="edgeStyle=orthogonalEdgeStyle;rounded=0;orthogonalLoop=1;jettySize=auto;html=1;entryX=0.5;entryY=0;entryDx=0;entryDy=0;fontSize=14;spacingTop=0;fillOpacity=100;" edge="1" source="bhZwOV67Gbov-zILEt_u-225" target="bhZwOV67Gbov-zILEt_u-236" parent="bhZwOV67Gbov-zILEt_u-349">
          <mxGeometry relative="1" as="geometry" />
        </mxCell>
        <mxCell id="bhZwOV67Gbov-zILEt_u-241" value="1.1.1.2&lt;br style=&quot;font-size: 14px;&quot;&gt;Passanger registration" style="rounded=0;whiteSpace=wrap;html=1;labelBackgroundColor=none;fontSize=14;spacingTop=0;fillOpacity=100;" vertex="1" parent="bhZwOV67Gbov-zILEt_u-349">
          <mxGeometry x="1665" y="1224.59" width="120" height="60" as="geometry" />
        </mxCell>
        <mxCell id="bhZwOV67Gbov-zILEt_u-223" style="edgeStyle=orthogonalEdgeStyle;rounded=0;orthogonalLoop=1;jettySize=auto;html=1;entryX=0.5;entryY=0;entryDx=0;entryDy=0;fontSize=14;spacingTop=0;fillOpacity=100;" edge="1" source="bhZwOV67Gbov-zILEt_u-225" target="bhZwOV67Gbov-zILEt_u-241" parent="bhZwOV67Gbov-zILEt_u-349">
          <mxGeometry relative="1" as="geometry" />
        </mxCell>
        <mxCell id="bhZwOV67Gbov-zILEt_u-242" value="" style="endArrow=classic;html=1;rounded=0;startArrow=oval;startFill=0;fontSize=14;labelBackgroundColor=none;fontColor=default;spacingTop=0;fillOpacity=100;" edge="1" parent="bhZwOV67Gbov-zILEt_u-349">
          <mxGeometry x="0.92" y="-64" width="50" height="50" relative="1" as="geometry">
            <mxPoint x="1205" y="994.59" as="sourcePoint" />
            <mxPoint x="1105" y="994.59" as="targetPoint" />
            <mxPoint as="offset" />
          </mxGeometry>
        </mxCell>
        <mxCell id="bhZwOV67Gbov-zILEt_u-243" value="" style="endArrow=classic;html=1;rounded=0;startArrow=oval;startFill=0;fontSize=14;labelBackgroundColor=none;fontColor=default;spacingTop=0;fillOpacity=100;" edge="1" parent="bhZwOV67Gbov-zILEt_u-349">
          <mxGeometry x="0.92" y="-64" width="50" height="50" relative="1" as="geometry">
            <mxPoint x="1515" y="994.59" as="sourcePoint" />
            <mxPoint x="1635" y="994.59" as="targetPoint" />
            <mxPoint as="offset" />
          </mxGeometry>
        </mxCell>
        <mxCell id="bhZwOV67Gbov-zILEt_u-244" value="" style="endArrow=classic;html=1;rounded=0;startArrow=oval;startFill=1;fontSize=14;labelBackgroundColor=none;fontColor=default;spacingTop=0;fillOpacity=100;" edge="1" parent="bhZwOV67Gbov-zILEt_u-349">
          <mxGeometry x="0.92" y="-64" width="50" height="50" relative="1" as="geometry">
            <mxPoint x="1320" y="800" as="sourcePoint" />
            <mxPoint x="1320" y="630" as="targetPoint" />
            <mxPoint as="offset" />
          </mxGeometry>
        </mxCell>
        <mxCell id="bhZwOV67Gbov-zILEt_u-253" value="1.1.1.1.1&lt;br style=&quot;font-size: 14px;&quot;&gt;Validate Registration Data" style="rounded=0;whiteSpace=wrap;html=1;labelBackgroundColor=none;fontSize=14;spacingTop=0;fillOpacity=100;" vertex="1" parent="bhZwOV67Gbov-zILEt_u-349">
          <mxGeometry x="605" y="1534.59" width="120" height="60" as="geometry" />
        </mxCell>
        <mxCell id="bhZwOV67Gbov-zILEt_u-254" value="1.1.1.1.2&lt;br style=&quot;font-size: 14px;&quot;&gt;Generate Account ID" style="rounded=0;whiteSpace=wrap;html=1;labelBackgroundColor=none;fontSize=14;spacingTop=0;fillOpacity=100;" vertex="1" parent="bhZwOV67Gbov-zILEt_u-349">
          <mxGeometry x="785" y="1534.59" width="120" height="60" as="geometry" />
        </mxCell>
        <mxCell id="bhZwOV67Gbov-zILEt_u-233" style="edgeStyle=orthogonalEdgeStyle;rounded=0;orthogonalLoop=1;jettySize=auto;html=1;entryX=0.5;entryY=0;entryDx=0;entryDy=0;fontSize=14;spacingTop=0;fillOpacity=100;" edge="1" source="bhZwOV67Gbov-zILEt_u-236" target="bhZwOV67Gbov-zILEt_u-254" parent="bhZwOV67Gbov-zILEt_u-349">
          <mxGeometry relative="1" as="geometry" />
        </mxCell>
        <mxCell id="bhZwOV67Gbov-zILEt_u-255" value="1.1.1.1.3&lt;br style=&quot;font-size: 14px;&quot;&gt;Store account Information" style="rounded=0;whiteSpace=wrap;html=1;labelBackgroundColor=none;fontSize=14;spacingTop=0;fillOpacity=100;" vertex="1" parent="bhZwOV67Gbov-zILEt_u-349">
          <mxGeometry x="965" y="1534.59" width="120" height="60" as="geometry" />
        </mxCell>
        <mxCell id="bhZwOV67Gbov-zILEt_u-234" style="edgeStyle=orthogonalEdgeStyle;rounded=0;orthogonalLoop=1;jettySize=auto;html=1;entryX=0.5;entryY=0;entryDx=0;entryDy=0;fontSize=14;spacingTop=0;fillOpacity=100;" edge="1" source="bhZwOV67Gbov-zILEt_u-236" target="bhZwOV67Gbov-zILEt_u-255" parent="bhZwOV67Gbov-zILEt_u-349">
          <mxGeometry relative="1" as="geometry" />
        </mxCell>
        <mxCell id="bhZwOV67Gbov-zILEt_u-256" value="1.1.1.1.4&lt;br style=&quot;font-size: 14px;&quot;&gt;Send Registration Confirmation" style="rounded=0;whiteSpace=wrap;html=1;labelBackgroundColor=none;fontSize=14;spacingTop=0;fillOpacity=100;" vertex="1" parent="bhZwOV67Gbov-zILEt_u-349">
          <mxGeometry x="1145" y="1534.59" width="120" height="60" as="geometry" />
        </mxCell>
        <mxCell id="bhZwOV67Gbov-zILEt_u-235" style="edgeStyle=orthogonalEdgeStyle;rounded=0;orthogonalLoop=1;jettySize=auto;html=1;entryX=0.5;entryY=0;entryDx=0;entryDy=0;fontSize=14;spacingTop=0;fillOpacity=100;" edge="1" source="bhZwOV67Gbov-zILEt_u-236" target="bhZwOV67Gbov-zILEt_u-256" parent="bhZwOV67Gbov-zILEt_u-349">
          <mxGeometry relative="1" as="geometry" />
        </mxCell>
        <mxCell id="bhZwOV67Gbov-zILEt_u-257" value="1.1.1.2.1&lt;br style=&quot;font-size: 14px;&quot;&gt;Validate Registration Data" style="rounded=0;whiteSpace=wrap;html=1;labelBackgroundColor=none;fontSize=14;spacingTop=0;fillOpacity=100;" vertex="1" parent="bhZwOV67Gbov-zILEt_u-349">
          <mxGeometry x="1385" y="1534.59" width="120" height="60" as="geometry" />
        </mxCell>
        <mxCell id="bhZwOV67Gbov-zILEt_u-237" style="edgeStyle=orthogonalEdgeStyle;rounded=0;orthogonalLoop=1;jettySize=auto;html=1;entryX=0.5;entryY=0;entryDx=0;entryDy=0;fontSize=14;spacingTop=0;fillOpacity=100;" edge="1" source="bhZwOV67Gbov-zILEt_u-241" target="bhZwOV67Gbov-zILEt_u-257" parent="bhZwOV67Gbov-zILEt_u-349">
          <mxGeometry relative="1" as="geometry" />
        </mxCell>
        <mxCell id="bhZwOV67Gbov-zILEt_u-258" value="1.1.1.2.2&lt;br style=&quot;font-size: 14px;&quot;&gt;Generate Account ID" style="rounded=0;whiteSpace=wrap;html=1;labelBackgroundColor=none;fontSize=14;spacingTop=0;fillOpacity=100;" vertex="1" parent="bhZwOV67Gbov-zILEt_u-349">
          <mxGeometry x="1565" y="1534.59" width="120" height="60" as="geometry" />
        </mxCell>
        <mxCell id="bhZwOV67Gbov-zILEt_u-238" style="edgeStyle=orthogonalEdgeStyle;rounded=0;orthogonalLoop=1;jettySize=auto;html=1;entryX=0.5;entryY=0;entryDx=0;entryDy=0;exitX=0.5;exitY=1;exitDx=0;exitDy=0;fontSize=14;spacingTop=0;fillOpacity=100;" edge="1" source="bhZwOV67Gbov-zILEt_u-241" target="bhZwOV67Gbov-zILEt_u-258" parent="bhZwOV67Gbov-zILEt_u-349">
          <mxGeometry relative="1" as="geometry" />
        </mxCell>
        <mxCell id="bhZwOV67Gbov-zILEt_u-259" value="1.1.1.2.3&lt;br style=&quot;font-size: 14px;&quot;&gt;Store account Information" style="rounded=0;whiteSpace=wrap;html=1;labelBackgroundColor=none;fontSize=14;spacingTop=0;fillOpacity=100;" vertex="1" parent="bhZwOV67Gbov-zILEt_u-349">
          <mxGeometry x="1745" y="1534.59" width="120" height="60" as="geometry" />
        </mxCell>
        <mxCell id="bhZwOV67Gbov-zILEt_u-239" style="edgeStyle=orthogonalEdgeStyle;rounded=0;orthogonalLoop=1;jettySize=auto;html=1;entryX=0.5;entryY=0;entryDx=0;entryDy=0;fontSize=14;spacingTop=0;fillOpacity=100;" edge="1" source="bhZwOV67Gbov-zILEt_u-241" target="bhZwOV67Gbov-zILEt_u-259" parent="bhZwOV67Gbov-zILEt_u-349">
          <mxGeometry relative="1" as="geometry" />
        </mxCell>
        <mxCell id="bhZwOV67Gbov-zILEt_u-260" value="1.1.1.2.4&lt;br style=&quot;font-size: 14px;&quot;&gt;Send Registration Confirmation" style="rounded=0;whiteSpace=wrap;html=1;labelBackgroundColor=none;fontSize=14;spacingTop=0;fillOpacity=100;" vertex="1" parent="bhZwOV67Gbov-zILEt_u-349">
          <mxGeometry x="1925" y="1534.59" width="120" height="60" as="geometry" />
        </mxCell>
        <mxCell id="bhZwOV67Gbov-zILEt_u-240" style="edgeStyle=orthogonalEdgeStyle;rounded=0;orthogonalLoop=1;jettySize=auto;html=1;entryX=0.5;entryY=0;entryDx=0;entryDy=0;fontSize=14;spacingTop=0;fillOpacity=100;" edge="1" source="bhZwOV67Gbov-zILEt_u-241" target="bhZwOV67Gbov-zILEt_u-260" parent="bhZwOV67Gbov-zILEt_u-349">
          <mxGeometry relative="1" as="geometry" />
        </mxCell>
        <mxCell id="bhZwOV67Gbov-zILEt_u-261" value="" style="endArrow=classic;html=1;rounded=0;startArrow=oval;startFill=1;fontSize=14;labelBackgroundColor=none;fontColor=default;spacingTop=0;fillOpacity=100;" edge="1" parent="bhZwOV67Gbov-zILEt_u-349">
          <mxGeometry x="0.92" y="-64" width="50" height="50" relative="1" as="geometry">
            <mxPoint x="645" y="1454.59" as="sourcePoint" />
            <mxPoint x="645" y="1384.59" as="targetPoint" />
            <mxPoint as="offset" />
          </mxGeometry>
        </mxCell>
        <mxCell id="bhZwOV67Gbov-zILEt_u-262" value="" style="endArrow=classic;html=1;rounded=0;startArrow=oval;startFill=1;fontSize=14;labelBackgroundColor=none;fontColor=default;spacingTop=0;fillOpacity=100;" edge="1" parent="bhZwOV67Gbov-zILEt_u-349">
          <mxGeometry x="0.92" y="-64" width="50" height="50" relative="1" as="geometry">
            <mxPoint x="835" y="1499.59" as="sourcePoint" />
            <mxPoint x="835" y="1449.59" as="targetPoint" />
            <mxPoint as="offset" />
          </mxGeometry>
        </mxCell>
        <mxCell id="bhZwOV67Gbov-zILEt_u-263" value="" style="endArrow=classic;html=1;rounded=0;startArrow=oval;startFill=1;fontSize=14;labelBackgroundColor=none;fontColor=default;spacingTop=0;fillOpacity=100;" edge="1" parent="bhZwOV67Gbov-zILEt_u-349">
          <mxGeometry x="0.92" y="-64" width="50" height="50" relative="1" as="geometry">
            <mxPoint x="1035" y="1499.59" as="sourcePoint" />
            <mxPoint x="1035" y="1449.59" as="targetPoint" />
            <mxPoint as="offset" />
          </mxGeometry>
        </mxCell>
        <mxCell id="bhZwOV67Gbov-zILEt_u-264" value="" style="endArrow=classic;html=1;rounded=0;startArrow=oval;startFill=1;fontSize=14;labelBackgroundColor=none;fontColor=default;spacingTop=0;fillOpacity=100;" edge="1" parent="bhZwOV67Gbov-zILEt_u-349">
          <mxGeometry x="0.92" y="-64" width="50" height="50" relative="1" as="geometry">
            <mxPoint x="1215" y="1444.59" as="sourcePoint" />
            <mxPoint x="1215" y="1384.59" as="targetPoint" />
            <mxPoint as="offset" />
          </mxGeometry>
        </mxCell>
        <mxCell id="bhZwOV67Gbov-zILEt_u-265" value="" style="endArrow=classic;html=1;rounded=0;startArrow=oval;startFill=1;fontSize=14;labelBackgroundColor=none;fontColor=default;spacingTop=0;fillOpacity=100;" edge="1" parent="bhZwOV67Gbov-zILEt_u-349">
          <mxGeometry x="0.92" y="-64" width="50" height="50" relative="1" as="geometry">
            <mxPoint x="1435" y="1444.59" as="sourcePoint" />
            <mxPoint x="1435" y="1374.59" as="targetPoint" />
            <mxPoint as="offset" />
          </mxGeometry>
        </mxCell>
        <mxCell id="bhZwOV67Gbov-zILEt_u-266" value="" style="endArrow=classic;html=1;rounded=0;startArrow=oval;startFill=1;fontSize=14;labelBackgroundColor=none;fontColor=default;spacingTop=0;fillOpacity=100;" edge="1" parent="bhZwOV67Gbov-zILEt_u-349">
          <mxGeometry x="0.92" y="-64" width="50" height="50" relative="1" as="geometry">
            <mxPoint x="1605" y="1474.59" as="sourcePoint" />
            <mxPoint x="1605" y="1424.59" as="targetPoint" />
            <mxPoint as="offset" />
          </mxGeometry>
        </mxCell>
        <mxCell id="bhZwOV67Gbov-zILEt_u-267" value="" style="endArrow=classic;html=1;rounded=0;startArrow=oval;startFill=1;fontSize=14;labelBackgroundColor=none;fontColor=default;spacingTop=0;fillOpacity=100;" edge="1" parent="bhZwOV67Gbov-zILEt_u-349">
          <mxGeometry x="0.92" y="-64" width="50" height="50" relative="1" as="geometry">
            <mxPoint x="1815" y="1484.59" as="sourcePoint" />
            <mxPoint x="1815" y="1429.59" as="targetPoint" />
            <mxPoint as="offset" />
          </mxGeometry>
        </mxCell>
        <mxCell id="bhZwOV67Gbov-zILEt_u-268" value="" style="endArrow=classic;html=1;rounded=0;startArrow=oval;startFill=1;fontSize=14;labelBackgroundColor=none;fontColor=default;spacingTop=0;fillOpacity=100;" edge="1" parent="bhZwOV67Gbov-zILEt_u-349">
          <mxGeometry x="0.92" y="-64" width="50" height="50" relative="1" as="geometry">
            <mxPoint x="2005" y="1454.59" as="sourcePoint" />
            <mxPoint x="2005" y="1374.59" as="targetPoint" />
            <mxPoint as="offset" />
          </mxGeometry>
        </mxCell>
        <mxCell id="bhZwOV67Gbov-zILEt_u-50" style="edgeStyle=orthogonalEdgeStyle;rounded=0;orthogonalLoop=1;jettySize=auto;html=1;entryX=0.5;entryY=0;entryDx=0;entryDy=0;fontSize=14;spacingTop=0;fillOpacity=100;" edge="1" parent="bhZwOV67Gbov-zILEt_u-349" source="baaq-4lyddFwtSRx4nJD-8" target="baaq-4lyddFwtSRx4nJD-15">
          <mxGeometry relative="1" as="geometry" />
        </mxCell>
        <mxCell id="bhZwOV67Gbov-zILEt_u-210" style="edgeStyle=orthogonalEdgeStyle;rounded=0;orthogonalLoop=1;jettySize=auto;html=1;entryX=0.5;entryY=0;entryDx=0;entryDy=0;fontSize=14;spacingTop=0;fillOpacity=100;" edge="1" source="bhZwOV67Gbov-zILEt_u-211" target="bhZwOV67Gbov-zILEt_u-225" parent="bhZwOV67Gbov-zILEt_u-349">
          <mxGeometry relative="1" as="geometry" />
        </mxCell>
      </root>
    </mxGraphModel>
  </diagram>
</mxfile>
